<svg xmlns="http://www.w3.org/2000/svg" xmlns:xlink="http://www.w3.org/1999/xlink" viewBox="0,0,256,256" width="240px" height="240px" fill-rule="nonzero"><defs><linearGradient x1="24" y1="43.734" x2="24" y2="4.266" gradientUnits="userSpaceOnUse" id="color-1"><stop offset="0" stop-color="#0a070a"></stop><stop offset="0.465" stop-color="#2b2b2b"></stop><stop offset="1" stop-color="#4b4b4b"></stop></linearGradient><linearGradient x1="30.512" y1="33.021" x2="30.512" y2="18.431" gradientUnits="userSpaceOnUse" id="color-2"><stop offset="0.377" stop-color="#ffffff" stop-opacity="0"></stop><stop offset="0.666" stop-color="#ffffff" stop-opacity="0.3"></stop><stop offset="0.988" stop-color="#ffffff"></stop></linearGradient><linearGradient x1="22.102" y1="21.443" x2="36.661" y2="40.529" gradientUnits="userSpaceOnUse" id="color-3"><stop offset="0.296" stop-color="#ffffff"></stop><stop offset="0.521" stop-color="#ffffff" stop-opacity="0.5"></stop><stop offset="0.838" stop-color="#ffffff" stop-opacity="0"></stop></linearGradient></defs><g transform="translate(28.16,28.16) scale(0.78,0.78)"><g fill="none" fill-rule="nonzero" stroke="none" stroke-width="1" stroke-linecap="butt" stroke-linejoin="miter" stroke-miterlimit="10" stroke-dasharray="" stroke-dashoffset="0" font-family="none" font-weight="none" font-size="none" text-anchor="none" style="mix-blend-mode: normal"><g transform="translate(0,-46.4) scale(5.33333,5.33333)"><circle cx="24" cy="24" r="19.734" fill="url(#color-1)"></circle><rect x="15.992" y="16.027" width="3.023" height="15.996" fill="#ffffff"></rect><rect x="29.035" y="15.957" width="2.953" height="14.59" fill="url(#color-2)"></rect><path d="M36.781,38.094l-2.613,0.996l-18.176,-23.063h3.516z" fill="url(#color-3)"></path></g></g><g fill="#5e5760" fill-rule="nonzero" stroke="none" stroke-width="1" stroke-linecap="butt" stroke-linejoin="miter" stroke-miterlimit="10" stroke-dasharray="" stroke-dashoffset="0" font-family="none" font-weight="none" font-size="none" text-anchor="none" style="mix-blend-mode: normal"><g><path d="M77.52,234.82667v-3.04h19.84v3.04c-1.01333,0.8 -2.13333,1.50667 -3.36,2.12c-1.22667,0.61333 -2.37333,1.08 -3.44,1.4v0v50.4h-6.8l-28.24,-40.8l-3.2,-6.16h-0.24l0.72,6.4v33.36c1.06667,0.26667 2.25333,0.70667 3.56,1.32c1.30667,0.61333 2.41333,1.24 3.32,1.88v0v3.04h-19.76v-3.04c0.96,-0.64 2.01333,-1.24 3.16,-1.8c1.14667,-0.56 2.33333,-1.02667 3.56,-1.4v0v-43.68c-1.06667,-0.42667 -2.13333,-0.90667 -3.2,-1.44c-1.06667,-0.53333 -2.02667,-1.09333 -2.88,-1.68v0v-2.96h17.28l22.96,33.28l3.68,6.88h0.32l-0.4,-6.88v-26.72c-1.28,-0.42667 -2.52,-0.94667 -3.72,-1.56c-1.2,-0.61333 -2.25333,-1.26667 -3.16,-1.96zM136.32,279.46667l1.52,1.6c-0.42667,0.90667 -1.10667,1.82667 -2.04,2.76c-0.93333,0.93333 -2.08,1.76 -3.44,2.48c-1.36,0.72 -2.93333,1.30667 -4.72,1.76c-1.78667,0.45333 -3.72,0.68 -5.8,0.68v0c-3.30667,0 -6.24,-0.49333 -8.8,-1.48c-2.56,-0.98667 -4.69333,-2.4 -6.4,-4.24c-1.70667,-1.84 -3,-4.04 -3.88,-6.6c-0.88,-2.56 -1.32,-5.44 -1.32,-8.64v0c0,-6.82667 1.78667,-12.02667 5.36,-15.6c3.57333,-3.57333 8.53333,-5.36 14.88,-5.36v0c2.72,0 5.26667,0.37333 7.64,1.12c2.37333,0.74667 4.34667,1.97333 5.92,3.68c1.57333,1.70667 2.66667,3.94667 3.28,6.72c0.61333,2.77333 0.57333,6.16 -0.12,10.16v0h-24.56c0.05333,4.21333 1.13333,7.57333 3.24,10.08c2.10667,2.50667 5.21333,3.76 9.32,3.76v0c1.76,0 3.58667,-0.26667 5.48,-0.8c1.89333,-0.53333 3.37333,-1.22667 4.44,-2.08zM121.36,251.38667v0c-1.06667,0 -2.01333,0.18667 -2.84,0.56c-0.82667,0.37333 -1.54667,1.05333 -2.16,2.04c-0.61333,0.98667 -1.10667,2.32 -1.48,4c-0.37333,1.68 -0.64,3.8 -0.8,6.36v0h12.88c0.37333,-4.16 0.13333,-7.36 -0.72,-9.6c-0.85333,-2.24 -2.48,-3.36 -4.88,-3.36zM178.88,252.82667l-10.96,13.52l12.64,16.4c1.38667,0.42667 2.69333,1.06667 3.92,1.92v0v3.12h-20.4v-3.04c0.58667,-0.42667 1.18667,-0.81333 1.8,-1.16c0.61333,-0.34667 1.24,-0.62667 1.88,-0.84v0l-7.6,-10.88l-7.36,10.88c0.74667,0.26667 1.4,0.56 1.96,0.88c0.56,0.32 1.10667,0.66667 1.64,1.04v0v3.12h-15.12v-3.12c0.74667,-0.42667 1.42667,-0.8 2.04,-1.12c0.61333,-0.32 1.32,-0.58667 2.12,-0.8v0l11.84,-14.72l-11.92,-15.2c-0.74667,-0.26667 -1.41333,-0.54667 -2,-0.84c-0.58667,-0.29333 -1.12,-0.65333 -1.6,-1.08v0v-3.12h20.08v3.04c-0.64,0.42667 -1.21333,0.81333 -1.72,1.16c-0.50667,0.34667 -1.13333,0.62667 -1.88,0.84v0l6.96,9.92l6.64,-9.92c-0.90667,-0.26667 -1.62667,-0.56 -2.16,-0.88c-0.53333,-0.32 -1.01333,-0.66667 -1.44,-1.04v0v-3.12h14.8v3.12c-0.53333,0.37333 -1.12,0.72 -1.76,1.04c-0.64,0.32 -1.44,0.61333 -2.4,0.88zM185.68,252.82667v-3.12c2.02667,-1.28 4.16,-2.18667 6.4,-2.72v0v-6.48c0.32,-0.32 0.86667,-0.62667 1.64,-0.92c0.77333,-0.29333 1.6,-0.56 2.48,-0.8c0.88,-0.24 1.74667,-0.46667 2.6,-0.68c0.85333,-0.21333 1.54667,-0.37333 2.08,-0.48v0h2.72v10.16h10.56v5.04h-10.56v20.72c0,3.30667 0.41333,5.6 1.24,6.88c0.82667,1.28 2.2,1.92 4.12,1.92v0c0.96,0 2.04,-0.06667 3.24,-0.2c1.2,-0.13333 2.30667,-0.38667 3.32,-0.76v0l0.56,2.64c-0.48,0.48 -1.18667,0.98667 -2.12,1.52c-0.93333,0.53333 -2,1.04 -3.2,1.52c-1.2,0.48 -2.50667,0.88 -3.92,1.2c-1.41333,0.32 -2.89333,0.48 -4.44,0.48v0c-3.46667,0 -6.05333,-0.90667 -7.76,-2.72c-1.70667,-1.81333 -2.56,-4.74667 -2.56,-8.8v0v-24.4z"></path></g></g></g></svg>