<svg version="1.1" id="Layer_1" xmlns="http://www.w3.org/2000/svg" xmlns:xlink="http://www.w3.org/1999/xlink" x="0px" y="0px" width="100%" viewBox="0 0 922 706" enable-background="new 0 0 922 706" xml:space="preserve">

<path fill="#354369" opacity="1.000000" stroke="none" d="
M668.283203,200.088898 
	C668.380615,202.079117 668.562012,204.069260 668.563477,206.059555 
	C668.622864,284.858185 668.625732,363.656952 668.816711,442.455261 
	C668.827454,446.901947 667.408997,449.239990 663.595581,451.432068 
	C608.412354,483.152832 553.331543,515.051697 498.210938,546.881531 
	C484.114227,555.021851 469.964508,563.070374 455.110504,571.040100 
	C453.921509,569.284851 453.066315,567.652039 453.060486,566.016174 
	C452.983612,544.486206 453.026520,522.955811 453.366333,501.256287 
	C502.611176,472.270905 551.503540,443.411224 600.493103,414.717468 
	C604.618896,412.300934 606.019531,409.507721 606.005676,404.770966 
	C605.846130,350.170959 605.900391,295.570312 605.937744,240.969849 
	C605.939331,238.663666 606.330383,236.357742 606.871582,234.047211 
	C623.552856,224.537231 639.861816,214.960449 656.282715,205.579468 
	C660.086853,203.406174 664.272888,201.901321 668.283203,200.088898 
z" data-index="1" style="opacity: 1;"></path>
<path fill="#53AEE8" opacity="1.000000" stroke="none" d="
M668.503906,199.792175 
	C664.272888,201.901321 660.086853,203.406174 656.282715,205.579468 
	C639.861816,214.960449 623.552856,224.537231 606.662964,233.742279 
	C605.593750,232.812531 605.187805,231.966751 604.517639,231.585632 
	C588.509399,222.483063 572.455566,213.460938 556.445251,204.362076 
	C523.296875,185.523346 490.153290,166.676147 457.061554,147.738373 
	C454.308990,146.163116 452.049927,145.850494 449.221375,147.492172 
	C438.480804,153.725998 427.629974,159.769592 416.838379,165.915939 
	C384.542450,184.310013 352.232910,202.680405 319.981415,221.152145 
	C312.837250,225.243896 305.909821,229.714111 298.533142,233.979126 
	C283.549500,225.492752 268.993042,216.898254 254.239975,208.655579 
	C248.911804,205.678665 243.112198,203.545563 237.527710,201.027405 
	C235.908813,197.359222 238.954895,196.319977 241.114136,195.067886 
	C256.342499,186.237534 271.634735,177.517441 286.894012,168.740295 
	C316.102295,151.939667 345.306488,135.131912 374.504303,118.313148 
	C400.083252,103.578949 425.636597,88.800102 451.274170,74.168770 
	C452.362488,73.547661 454.482727,73.700890 455.625031,74.357864 
	C493.594940,96.195625 531.494202,118.156067 569.425232,140.061493 
	C601.040039,158.319229 632.697083,176.503937 664.270691,194.832489 
	C666.056030,195.868881 667.253540,197.917801 668.503906,199.792175 
z" data-index="2" style="visibility: visible; opacity: 1;"></path>
<path fill="#3F7AB9" opacity="1.000000" stroke="none" d="
M237.412262,201.484238 
	C243.112198,203.545563 248.911804,205.678665 254.239975,208.655579 
	C268.993042,216.898254 283.549500,225.492752 298.663086,234.434265 
	C299.229492,236.912552 299.392120,238.904739 299.392609,240.896973 
	C299.405975,295.355164 299.399536,349.813385 299.415436,404.271576 
	C299.416016,406.262207 299.197449,408.395203 299.824646,410.203979 
	C300.471771,412.070129 301.655762,414.227020 303.250153,415.207642 
	C311.447479,420.249359 319.847534,424.962036 328.185852,429.773895 
	C356.810455,446.292572 385.422485,462.833160 414.073120,479.306549 
	C427.020782,486.751068 440.048187,494.056854 453.039429,501.425568 
	C453.026520,522.955811 452.983612,544.486206 453.060486,566.016174 
	C453.066315,567.652039 453.921509,569.284851 454.756165,571.110840 
	C453.373474,574.520081 452.023102,571.855652 450.228210,570.478271 
	C449.261780,569.686584 448.615784,569.402405 447.969818,569.118164 
	C447.792511,569.081238 447.615204,569.044250 447.164459,568.556274 
	C446.198151,567.813965 445.505249,567.522644 444.812378,567.231323 
	C444.395844,567.117737 443.979340,567.004089 443.241302,566.388855 
	C441.814697,565.399353 440.709625,564.911438 439.604553,564.423584 
	C437.597870,563.302063 435.591156,562.180603 433.237213,560.571655 
	C432.201111,559.798035 431.512238,559.511780 430.823364,559.225586 
	C430.027527,558.882385 429.231659,558.539307 428.166138,557.639526 
	C426.552124,556.449585 425.207733,555.816284 423.863342,555.182983 
	C422.432037,554.471985 421.000702,553.761047 419.233093,552.562622 
	C418.216553,551.782898 417.536285,551.490601 416.856018,551.198364 
	C416.054291,550.853516 415.252533,550.508606 414.174133,549.607605 
	C412.560760,548.426086 411.224091,547.800659 409.887421,547.175293 
	C408.452026,546.458191 407.016632,545.741150 405.239288,544.541687 
	C404.220337,543.770691 403.543335,543.482056 402.866302,543.193481 
	C402.063934,542.829163 401.261566,542.464905 400.174652,541.544434 
	C398.558899,540.379333 397.227722,539.770325 395.896515,539.161377 
	C394.457336,538.447021 393.018188,537.732605 391.241882,536.535034 
	C390.239716,535.754150 389.574677,535.456421 388.909637,535.158752 
	C388.094086,534.808044 387.278534,534.457336 386.177826,533.549927 
	C384.571777,532.374756 383.250916,531.756226 381.930054,531.137695 
	C380.481201,530.427063 379.032379,529.716431 377.245605,528.527710 
	C376.256989,527.741943 375.606293,527.434326 374.955597,527.126770 
	C373.512207,526.391479 372.068817,525.656250 370.265259,524.457520 
	C369.250122,523.707825 368.595154,523.421692 367.940216,523.135559 
	C367.117767,522.771851 366.295319,522.408142 365.169800,521.487427 
	C363.103210,520.103577 361.339691,519.276794 359.576172,518.450073 
	C358.582123,517.930664 357.588104,517.411194 356.250793,516.434692 
	C355.261627,515.690979 354.615784,515.404358 353.969940,515.117676 
	C353.140137,514.756226 352.310333,514.394775 351.174500,513.474854 
	C349.110657,512.090149 347.352875,511.263855 345.595093,510.437592 
	C343.590576,509.316132 341.586060,508.194672 339.236816,506.581726 
	C338.200867,505.803040 337.509644,505.515839 336.818390,505.228638 
	C336.399872,505.118225 335.981354,505.007812 335.240417,504.395813 
	C333.814301,503.403198 332.710663,502.912201 331.606995,502.421173 
	C329.598816,501.301605 327.590668,500.182037 325.240295,498.571289 
	C324.217163,497.788147 323.536194,497.496185 322.855225,497.204254 
	C322.052917,496.860962 321.250580,496.517700 320.173126,495.616882 
	C318.552979,494.436523 317.208008,493.813690 315.863007,493.190826 
	C314.433563,492.471527 313.004150,491.752228 311.236572,490.548279 
	C310.221344,489.772461 309.544312,489.481293 308.867249,489.190125 
	C308.062561,488.841858 307.257904,488.493591 306.174561,487.588318 
	C304.562836,486.408447 303.229736,485.785583 301.896637,485.162720 
	C300.456268,484.450104 299.015930,483.737457 297.239136,482.541382 
	C296.237762,481.758270 295.572845,481.458588 294.907898,481.158905 
	C294.093567,480.814636 293.279205,480.470367 292.181152,479.570190 
	C290.570618,478.393433 289.243774,477.772614 287.916962,477.151764 
	C286.471710,476.436584 285.026459,475.721405 283.241821,474.526672 
	C282.242889,473.747253 281.583313,473.447449 280.923706,473.147644 
	C279.489563,472.406525 278.055450,471.665405 276.262512,470.460449 
	C275.247986,469.709900 274.592285,469.423218 273.936584,469.136536 
	C272.489166,468.416687 271.041748,467.696777 269.253906,466.455688 
	C267.794006,465.450317 266.674500,464.966095 265.554993,464.481873 
	C264.568298,463.954590 263.581635,463.427307 262.250977,462.442139 
	C261.257446,461.698975 260.607910,461.413757 259.958344,461.128540 
	C258.503937,460.408112 257.049500,459.687683 255.255310,458.447021 
	C253.806885,457.431732 252.698227,456.936615 251.589569,456.441528 
	C250.592972,455.921417 249.596359,455.401306 248.253784,454.425659 
	C247.262756,453.686066 246.617691,453.402039 245.972610,453.118011 
	C245.795700,453.079010 245.618790,453.040009 245.167587,452.548401 
	C244.199478,451.810211 243.505646,451.524628 242.811829,451.239014 
	C242.394211,451.128662 241.976593,451.018311 241.242737,450.413818 
	C239.862061,449.416016 238.797607,448.912384 237.733154,448.408752 
	C237.733154,448.408722 237.670151,448.331848 237.761597,447.816772 
	C237.896530,399.997955 237.945435,352.694214 237.949631,305.390442 
	C237.949722,304.305756 237.444687,303.220978 237.175278,302.136261 
	C237.215790,268.737854 237.256302,235.339462 237.412262,201.484238 
z" data-index="3" style="opacity: 1;"></path>
<path fill="#3678B6" opacity="1.000000" stroke="none" d="
M277.718597,623.498535 
	C271.388641,632.546082 258.156769,635.776733 245.909683,631.545105 
	C237.522476,628.647095 232.867615,622.175781 233.338181,613.726440 
	C236.896240,613.726440 240.479034,613.726440 244.074799,613.726440 
	C247.532791,622.446167 253.377945,625.750854 261.783264,622.896667 
	C264.169098,622.086487 267.317932,619.234924 267.416199,617.189819 
	C267.513306,615.169189 264.596222,612.054871 262.293304,611.060852 
	C257.148010,608.839783 251.471008,607.890442 246.174850,605.970032 
	C236.220261,602.360535 231.834763,593.977966 236.267258,585.747314 
	C238.219803,582.121643 242.099411,578.888672 245.869278,577.026306 
	C252.898697,573.553650 260.523682,574.306458 267.663513,577.282349 
	C274.215149,580.013123 277.607758,585.194153 277.849213,592.703369 
	C273.936432,592.703369 270.323395,592.703369 266.667999,592.703369 
	C263.404175,585.770447 259.650269,583.359741 252.814850,585.053223 
	C250.572128,585.608887 247.969391,587.977478 247.122330,590.140198 
	C245.830154,593.439331 248.674088,595.192871 251.612350,596.028259 
	C256.563599,597.435852 261.579010,598.620972 266.516724,600.072205 
	C278.111664,603.480042 282.233185,611.913818 277.718597,623.498535 
z" data-index="4"></path>
<path fill="#3578B6" opacity="1.000000" stroke="none" d="
M329.382507,606.728210 
	C332.340973,594.900696 339.379730,589.369934 349.675293,591.017700 
	C352.778656,591.514343 355.670776,593.330811 358.699615,594.558899 
	C360.388062,588.777283 365.584808,592.952576 369.619446,591.595764 
	C369.619446,609.884277 369.619446,627.723877 369.619446,645.818970 
	C366.220947,645.818970 362.953857,645.818970 359.229034,645.818970 
	C359.229034,640.158020 359.229034,634.419312 359.229034,628.505188 
	C358.320404,628.563965 357.720551,628.414978 357.456940,628.647461 
	C352.026489,633.435425 345.862122,634.303223 339.375366,631.523926 
	C332.739746,628.681030 330.012512,622.837708 329.175079,616.089661 
	C328.811005,613.155823 329.211487,610.127197 329.382507,606.728210 
M340.174133,614.944031 
	C340.425293,615.902405 340.626221,616.877441 340.936340,617.816345 
	C342.314362,621.987793 345.008118,624.762878 349.573792,624.738220 
	C354.359344,624.712402 357.656433,621.851746 358.271790,617.368042 
	C358.836700,613.251526 358.535522,608.812073 357.589905,604.753967 
	C356.766876,601.221802 353.830872,599.031494 349.787506,598.988770 
	C345.793488,598.946655 342.928650,600.962952 341.694061,604.433716 
	C340.616913,607.461792 340.593964,610.864807 340.174133,614.944031 
z" data-index="5" style="opacity: 1;"></path>
<path fill="#397AB7" opacity="1.000000" stroke="none" d="
M450.561737,631.830017 
	C441.742493,634.048401 433.753052,633.465332 427.710083,626.522705 
	C421.833405,619.771240 421.291595,611.685059 424.127106,603.506958 
	C427.563171,593.596802 438.679962,588.348206 448.986542,591.371887 
	C458.122375,594.052002 464.060883,604.229431 462.182251,614.609253 
	C453.021912,614.609253 443.764374,614.609253 434.226898,614.609253 
	C433.833160,618.697510 434.954956,621.652344 438.234192,623.311340 
	C442.036591,625.235107 446.582916,625.675110 449.455963,622.573547 
	C453.083954,618.657104 457.031982,619.447571 461.595520,619.562378 
	C460.333954,625.876465 456.562531,629.578430 450.561737,631.830017 
M450.969421,604.971252 
	C448.350281,599.701111 445.207031,597.821655 440.409729,599.197449 
	C436.509369,600.315918 433.974182,602.803589 434.100067,607.649048 
	C439.275574,607.649048 444.068024,607.730957 448.851898,607.565491 
	C449.618256,607.538940 450.346313,606.405151 450.969421,604.971252 
z" data-index="6" style="opacity: 1;"></path>
<path fill="#397AB7" opacity="1.000000" stroke="none" d="
M561.404724,631.918884 
	C550.238220,626.849304 545.658508,616.590698 549.047363,605.029785 
	C551.948914,595.131104 560.958313,589.570190 571.876160,590.938904 
	C582.427307,592.261658 589.274170,602.247681 587.656555,614.624512 
	C578.502502,614.624512 569.256348,614.624512 559.965942,614.624512 
	C559.323853,618.876465 560.587402,621.810181 563.922119,623.402100 
	C567.740540,625.224792 572.183228,625.606995 575.114258,622.435974 
	C578.741943,618.511169 582.595215,619.391846 586.843933,619.703247 
	C584.465271,630.269470 574.252258,635.147461 561.404724,631.918884 
M573.921875,607.661926 
	C576.240967,607.835938 577.378784,607.324463 576.339478,604.597290 
	C574.649292,600.162109 571.421082,598.599060 566.982727,599.026245 
	C562.619141,599.446289 560.084045,602.385010 559.700806,607.661499 
	C564.164490,607.661499 568.603455,607.661499 573.921875,607.661926 
z" data-index="7" style="opacity: 1;"></path>
<path fill="#397AB7" opacity="1.000000" stroke="none" d="
M285.299133,620.358398 
	C282.291779,608.720703 284.943054,599.165222 292.750610,594.110779 
	C299.538727,589.716309 306.964447,589.120972 314.038452,593.067810 
	C322.048615,597.536987 324.235748,605.214905 323.945007,614.492188 
	C314.365906,614.492188 304.977264,614.492188 295.588623,614.492188 
	C295.190338,614.963928 294.792023,615.435730 294.393707,615.907471 
	C296.263885,618.484375 297.656189,622.436218 300.123901,623.293823 
	C303.285645,624.392700 308.526520,624.347778 310.701935,622.387756 
	C314.615875,618.861267 318.383453,619.563660 322.611023,619.501465 
	C321.160095,627.243958 316.202698,631.548828 307.715271,632.736328 
	C297.502960,634.165222 290.006317,630.122131 285.299133,620.358398 
M308.947784,600.251770 
	C301.205414,597.184937 295.859344,600.028076 295.603424,607.210205 
	C301.280121,607.210205 306.952515,607.210205 313.582062,607.210205 
	C311.925873,604.542664 310.742950,602.637329 308.947784,600.251770 
z" data-index="8" style="opacity: 1;"></path>
<path fill="#3578B6" opacity="1.000000" stroke="none" d="
M399.324707,631.646362 
	C394.890503,631.909058 390.734039,632.551758 386.768951,631.944519 
	C382.227051,631.248901 379.272583,627.693970 379.104706,623.229736 
	C378.719421,612.983582 378.982697,602.713074 378.982697,592.109253 
	C381.844727,592.109253 385.102722,592.109253 389.237793,592.109253 
	C389.237793,595.032410 389.175964,598.105530 389.251251,601.175354 
	C389.389740,606.822510 389.477356,612.476318 389.842224,618.110718 
	C390.073151,621.677490 391.980896,623.982605 395.856384,624.118958 
	C399.672638,624.253113 402.974243,623.253784 404.016113,619.163330 
	C404.702972,616.466492 404.891785,613.596313 404.952301,610.796143 
	C405.084656,604.670959 404.993256,598.541016 404.993256,592.095520 
	C408.744781,592.095520 412.122131,592.095520 415.779724,592.095520 
	C415.779724,605.292297 415.779724,618.354431 415.779724,632.071716 
	C412.024628,630.740906 406.909821,635.074768 404.697296,628.138428 
	C403.128052,629.183167 401.407532,630.328552 399.324707,631.646362 
z" data-index="9" style="opacity: 1;"></path>
<path fill="#3678B6" opacity="1.000000" stroke="none" d="
M640.725769,594.721375 
	C648.394958,589.367249 656.436584,589.848938 664.377136,592.368652 
	C669.064819,593.856079 671.872070,597.540833 672.145203,603.199646 
	C667.519653,603.273376 663.079895,605.398865 659.822449,599.853577 
	C658.942749,598.356140 654.975037,598.207153 652.463928,598.318909 
	C651.093567,598.379822 648.928040,600.150452 648.738525,601.396118 
	C648.565552,602.532898 650.319397,604.709412 651.667297,605.193420 
	C656.021301,606.757019 660.651367,607.538330 665.042847,609.014465 
	C672.261292,611.440857 674.925781,616.478149 672.952209,623.269653 
	C672.905823,623.429382 672.857666,623.588623 672.804565,623.746155 
	C670.495972,630.597778 662.079163,634.064514 651.047424,632.707947 
	C641.757507,631.565552 637.178223,627.342407 636.577393,619.156799 
	C639.715942,619.156799 642.843628,619.156799 646.029480,619.156799 
	C649.452759,624.786377 653.388184,626.852966 658.319702,624.947266 
	C659.879272,624.344543 661.781189,622.441650 661.914612,620.986084 
	C662.033875,619.685242 660.208374,617.457275 658.757996,616.903442 
	C654.591797,615.312805 650.121155,614.542175 645.878418,613.125000 
	C636.452148,609.976196 634.422058,602.992249 640.725769,594.721375 
z" data-index="10" style="opacity: 1;"></path>
<path fill="#3477B5" opacity="1.000000" stroke="none" d="
M530.990479,632.004639 
	C522.870117,632.004639 515.248474,632.004639 507.464539,632.004639 
	C506.470825,627.151062 506.801361,623.302063 510.480865,619.601257 
	C516.321167,613.727295 521.558960,607.254211 527.780945,600.208740 
	C520.954163,600.208740 514.983276,600.208740 508.810791,600.208740 
	C508.810791,597.107605 508.810791,594.686707 508.810791,592.078491 
	C520.119568,592.078491 531.161560,592.078491 542.277405,592.078491 
	C543.399414,596.847168 542.593811,600.549988 539.187378,604.070557 
	C533.347473,610.106262 527.960571,616.580200 521.653198,623.693787 
	C529.682007,623.693787 536.558167,623.693787 543.735229,623.693787 
	C543.735229,626.544128 543.735229,628.953369 543.735229,632.004639 
	C539.680420,632.004639 535.584839,632.004639 530.990479,632.004639 
z" data-index="11" style="opacity: 1;"></path>
<path fill="#3E7EB9" opacity="1.000000" stroke="none" d="
M617.331970,610.001587 
	C617.332336,603.729309 617.332336,597.956482 617.332336,591.896973 
	C621.299500,591.896973 624.700745,591.896973 628.715820,591.896973 
	C628.715820,599.735718 628.716187,607.331848 628.715698,614.927979 
	C628.715332,620.417542 628.730591,625.907104 628.709167,631.396606 
	C628.661194,643.723938 623.915100,647.599609 611.167480,645.470886 
	C611.167480,642.926941 611.167480,640.329468 611.167480,637.305298 
	C617.550659,637.598389 617.607849,633.319092 617.396301,628.464233 
	C617.135803,622.486938 617.332520,616.489685 617.331970,610.001587 
z" data-index="12" style="opacity: 1;"></path>
<path fill="#397AB7" opacity="1.000000" stroke="none" d="
M469.531616,608.999878 
	C469.531738,597.905212 469.531738,587.310547 469.531738,576.469482 
	C473.501495,576.469482 476.884125,576.469482 480.537048,576.469482 
	C480.537048,594.953003 480.537048,613.147766 480.537048,631.679688 
	C477.022980,631.679688 473.618195,631.679688 469.531525,631.679688 
	C469.531525,624.327332 469.531525,616.913635 469.531616,608.999878 
z" data-index="13" style="opacity: 1;"></path>
<path fill="#3578B6" opacity="1.000000" stroke="none" d="
M489.811676,616.996704 
	C489.811554,608.536865 489.811554,600.576660 489.811554,592.195374 
	C493.422394,592.195374 496.799835,592.195374 500.537231,592.195374 
	C500.537231,605.132751 500.537231,618.172302 500.537231,631.611450 
	C497.278229,631.611450 493.905396,631.611450 489.811798,631.611450 
	C489.811798,626.975708 489.811798,622.235962 489.811676,616.996704 
z" data-index="14" style="opacity: 1;"></path>
<path fill="#53AEE8" opacity="1.000000" stroke="none" d="
M236.905975,302.427856 
	C237.444687,303.220978 237.949722,304.305756 237.949631,305.390442 
	C237.945435,352.694214 237.896530,399.997955 237.726807,447.781311 
	C237.057861,447.000336 236.038696,445.738800 236.041245,444.479401 
	C236.136566,397.386322 236.326050,350.293457 236.508484,303.200592 
	C236.509109,303.040039 236.592148,302.879822 236.905975,302.427856 
z" data-index="15" style="visibility: visible; opacity: 1;"></path>
<path fill="#3E7EB9" opacity="1.000000" stroke="none" d="
M598.211060,619.971558 
	C601.162659,619.987244 603.646729,619.993652 606.130127,620.037476 
	C606.436096,620.042847 606.738525,620.247437 607.347656,620.472229 
	C607.347656,624.079773 607.347656,627.797058 607.347656,631.772949 
	C603.380859,631.772949 599.631042,631.772949 595.143677,631.772949 
	C595.143677,628.547058 594.980957,625.293701 595.262268,622.079224 
	C595.329529,621.310913 596.876770,620.672119 598.211060,619.971558 
z" data-index="16"></path>
<path fill="#3E7EB9" opacity="1.000000" stroke="none" d="
M628.715027,580.959229 
	C629.031738,584.119446 628.476624,585.944336 625.074768,585.601807 
	C622.789856,585.371704 620.463074,585.557983 617.744568,585.557983 
	C617.744568,582.393066 617.744568,579.547058 617.744568,576.721497 
	C627.221680,575.116882 628.343262,575.515625 628.715027,580.959229 
z" data-index="17"></path>
<path fill="#3E7EB9" opacity="1.000000" stroke="none" d="
M489.666565,582.616699 
	C489.663086,580.408386 489.663086,578.613037 489.663086,576.490112 
	C493.476807,576.490112 496.847870,576.490112 500.569733,576.490112 
	C500.569733,579.307068 500.569733,582.042297 500.569733,585.635193 
	C497.009674,583.975525 492.501160,588.740356 489.666565,582.616699 
z" data-index="18"></path>
<path fill="#53AEE8" opacity="1.000000" stroke="none" d="
M359.735291,518.731079 
	C361.339691,519.276794 363.103210,520.103577 364.941650,521.230652 
	C363.309204,520.691345 361.601776,519.851746 359.735291,518.731079 
z" data-index="19"></path>
<path fill="#53AEE8" opacity="1.000000" stroke="none" d="
M345.752289,510.718811 
	C347.352875,511.263855 349.110657,512.090149 350.946594,513.214478 
	C349.319641,512.675049 347.614563,511.837524 345.752289,510.718811 
z" data-index="20"></path>
<path fill="#53AEE8" opacity="1.000000" stroke="none" d="
M409.964294,547.489990 
	C411.224091,547.800659 412.560760,548.426086 413.945374,549.365112 
	C412.675903,549.054138 411.358551,548.429382 409.964294,547.489990 
z" data-index="21"></path>
<path fill="#53AEE8" opacity="1.000000" stroke="none" d="
M395.971283,539.476868 
	C397.227722,539.770325 398.558899,540.379333 399.949738,541.293213 
	C398.688263,540.996216 397.367157,540.394287 395.971283,539.476868 
z" data-index="22"></path>
<path fill="#53AEE8" opacity="1.000000" stroke="none" d="
M382.002563,531.452209 
	C383.250916,531.756226 384.571777,532.374756 385.949646,533.298035 
	C384.696106,532.990723 383.385590,532.378723 382.002563,531.452209 
z" data-index="23"></path>
<path fill="#53AEE8" opacity="1.000000" stroke="none" d="
M423.942810,555.497925 
	C425.207733,555.816284 426.552124,556.449585 427.937500,557.401245 
	C426.659760,557.083984 425.341034,556.448425 423.942810,555.497925 
z" data-index="24"></path>
<path fill="#53AEE8" opacity="1.000000" stroke="none" d="
M315.940857,493.505920 
	C317.208008,493.813690 318.552979,494.436523 319.944305,495.375183 
	C318.666626,495.067657 317.342651,494.444336 315.940857,493.505920 
z" data-index="25"></path>
<path fill="#53AEE8" opacity="1.000000" stroke="none" d="
M301.970551,485.477966 
	C303.229736,485.785583 304.562836,486.408447 305.946777,487.342224 
	C304.679901,487.033173 303.362183,486.413177 301.970551,485.477966 
z" data-index="26"></path>
<path fill="#53AEE8" opacity="1.000000" stroke="none" d="
M287.991180,477.466034 
	C289.243774,477.772614 290.570618,478.393433 291.950989,479.322632 
	C290.691467,479.014038 289.378448,478.397156 287.991180,477.466034 
z" data-index="27"></path>
<path fill="#53AEE8" opacity="1.000000" stroke="none" d="
M265.712769,464.749512 
	C266.674500,464.966095 267.794006,465.450317 268.960571,466.262512 
	C267.961975,466.066071 266.916290,465.541626 265.712769,464.749512 
z" data-index="28"></path>
<path fill="#53AEE8" opacity="1.000000" stroke="none" d="
M439.751892,564.698120 
	C440.709625,564.911438 441.814697,565.399353 442.971100,566.208008 
	C441.981384,566.010010 440.940308,565.491272 439.751892,564.698120 
z" data-index="29"></path>
<path fill="#53AEE8" opacity="1.000000" stroke="none" d="
M237.840347,448.694397 
	C238.797607,448.912384 239.862061,449.416016 240.971725,450.233734 
	C239.993820,450.025238 238.970688,449.502655 237.840347,448.694397 
z" data-index="30"></path>
<path fill="#53AEE8" opacity="1.000000" stroke="none" d="
M251.738861,456.714264 
	C252.698227,456.936615 253.806885,457.431732 254.961548,458.251892 
	C253.967743,458.046997 252.927933,457.516998 251.738861,456.714264 
z" data-index="31"></path>
<path fill="#53AEE8" opacity="1.000000" stroke="none" d="
M331.751587,502.697113 
	C332.710663,502.912201 333.814301,503.403198 334.969116,504.214905 
	C333.978882,504.014709 332.937531,503.493896 331.751587,502.697113 
z" data-index="32"></path>
<path fill="#53AEE8" opacity="1.000000" stroke="none" d="
M242.889969,451.531189 
	C243.505646,451.524628 244.199478,451.810211 244.938263,452.402649 
	C244.311523,452.414062 243.639816,452.118713 242.889969,451.531189 
z" data-index="33"></path>
<path fill="#53AEE8" opacity="1.000000" stroke="none" d="
M430.897339,559.519165 
	C431.512238,559.511780 432.201111,559.798035 432.935181,560.388306 
	C432.310669,560.399170 431.640991,560.106018 430.897339,559.519165 
z" data-index="34"></path>
<path fill="#53AEE8" opacity="1.000000" stroke="none" d="
M246.026031,453.411011 
	C246.617691,453.402039 247.262756,453.686066 247.963638,454.249115 
	C247.372772,454.253418 246.726105,453.978729 246.026031,453.411011 
z" data-index="35"></path>
<path fill="#53AEE8" opacity="1.000000" stroke="none" d="
M260.014801,461.421143 
	C260.607910,461.413757 261.257446,461.698975 261.962402,462.265869 
	C261.368958,462.269623 260.720093,461.991699 260.014801,461.421143 
z" data-index="36"></path>
<path fill="#53AEE8" opacity="1.000000" stroke="none" d="
M448.023865,569.410095 
	C448.615784,569.402405 449.261780,569.686584 449.960938,570.250793 
	C449.368713,570.254578 448.723297,569.978271 448.023865,569.410095 
z" data-index="37"></path>
<path fill="#53AEE8" opacity="1.000000" stroke="none" d="
M444.887329,567.525391 
	C445.505249,567.522644 446.198151,567.813965 446.933777,568.412720 
	C446.305084,568.419983 445.633667,568.119690 444.887329,567.525391 
z" data-index="38"></path>
<path fill="#53AEE8" opacity="1.000000" stroke="none" d="
M416.925842,551.491516 
	C417.536285,551.490601 418.216553,551.782898 418.941040,552.376343 
	C418.322052,552.379883 417.658844,552.082275 416.925842,551.491516 
z" data-index="39"></path>
<path fill="#53AEE8" opacity="1.000000" stroke="none" d="
M402.933167,543.487732 
	C403.543335,543.482056 404.220337,543.770691 404.944244,544.357300 
	C404.327423,544.364258 403.663727,544.073120 402.933167,543.487732 
z" data-index="40"></path>
<path fill="#53AEE8" opacity="1.000000" stroke="none" d="
M388.971436,535.451843 
	C389.574677,535.456421 390.239716,535.754150 390.948761,536.346558 
	C390.339600,536.342529 389.686401,536.043701 388.971436,535.451843 
z" data-index="41"></path>
<path fill="#53AEE8" opacity="1.000000" stroke="none" d="
M375.005432,527.422729 
	C375.606293,527.434326 376.256989,527.741943 376.949921,528.339722 
	C376.346527,528.326233 375.700897,528.022522 375.005432,527.422729 
z" data-index="42"></path>
<path fill="#53AEE8" opacity="1.000000" stroke="none" d="
M367.997314,523.429932 
	C368.595154,523.421692 369.250122,523.707825 369.960236,524.278198 
	C369.361694,524.283020 368.708038,524.003662 367.997314,523.429932 
z" data-index="43"></path>
<path fill="#53AEE8" opacity="1.000000" stroke="none" d="
M354.023987,515.410645 
	C354.615784,515.404358 355.261627,515.690979 355.961914,516.257874 
	C355.370239,516.259949 354.724152,515.981750 354.023987,515.410645 
z" data-index="44"></path>
<path fill="#53AEE8" opacity="1.000000" stroke="none" d="
M336.895020,505.521271 
	C337.509644,505.515839 338.200867,505.803040 338.936646,506.395782 
	C338.311340,506.405518 337.641479,506.109711 336.895020,505.521271 
z" data-index="45"></path>
<path fill="#53AEE8" opacity="1.000000" stroke="none" d="
M322.924011,497.498047 
	C323.536194,497.496185 324.217163,497.788147 324.941925,498.381836 
	C324.321411,498.386353 323.657074,498.089081 322.924011,497.498047 
z" data-index="46"></path>
<path fill="#53AEE8" opacity="1.000000" stroke="none" d="
M308.934967,489.483704 
	C309.544312,489.481293 310.221344,489.772461 310.943665,490.362671 
	C310.326874,490.366882 309.664764,490.072052 308.934967,489.483704 
z" data-index="47"></path>
<path fill="#53AEE8" opacity="1.000000" stroke="none" d="
M294.968231,481.453186 
	C295.572845,481.458588 296.237762,481.758270 296.945953,482.353027 
	C296.335663,482.347900 295.682098,482.047668 294.968231,481.453186 
z" data-index="48"></path>
<path fill="#53AEE8" opacity="1.000000" stroke="none" d="
M280.979156,473.442993 
	C281.583313,473.447449 282.242889,473.747253 282.946259,474.339417 
	C282.338196,474.333923 281.686401,474.036133 280.979156,473.442993 
z" data-index="49"></path>
<path fill="#53AEE8" opacity="1.000000" stroke="none" d="
M273.995056,469.430664 
	C274.592285,469.423218 275.247986,469.709900 275.958771,470.281158 
	C275.360413,470.285431 274.707001,470.005127 273.995056,469.430664 
z" data-index="50"></path>

<path fill="#FBFCFD" opacity="1.000000" stroke="none" d="
M340.139709,614.523071 
	C340.593964,610.864807 340.616913,607.461792 341.694061,604.433716 
	C342.928650,600.962952 345.793488,598.946655 349.787506,598.988770 
	C353.830872,599.031494 356.766876,601.221802 357.589905,604.753967 
	C358.535522,608.812073 358.836700,613.251526 358.271790,617.368042 
	C357.656433,621.851746 354.359344,624.712402 349.573792,624.738220 
	C345.008118,624.762878 342.314362,621.987793 340.936340,617.816345 
	C340.626221,616.877441 340.425293,615.902405 340.139709,614.523071 
z" data-index="52" style="opacity: 1; visibility: hidden;"></path>

<path fill="#EDF3F8" opacity="1.000000" stroke="none" d="
M573.482117,607.661743 
	C568.603455,607.661499 564.164490,607.661499 559.700806,607.661499 
	C560.084045,602.385010 562.619141,599.446289 566.982727,599.026245 
	C571.421082,598.599060 574.649292,600.162109 576.339478,604.597290 
	C577.378784,607.324463 576.240967,607.835938 573.482117,607.661743 
z" data-index="54" style="opacity: 1; visibility: hidden;"></path>

<path fill="#54AEE8" opacity="1.000000" stroke="none" d="
M393.325684,195.045914 
	C395.255127,193.235123 396.927490,190.983994 399.154938,189.683655 
	C416.053131,179.818726 433.000336,170.032227 450.113739,160.548843 
	C452.100098,159.448105 455.736633,159.381409 457.693115,160.473892 
	C475.506226,170.420547 493.124695,180.716354 510.767395,190.966278 
	C512.013855,191.690414 513.001526,192.859985 513.720703,194.313721 
	C512.089966,195.192459 510.722778,195.363571 509.624786,195.999512 
	C490.725220,206.945709 471.858856,217.949249 452.796570,228.664017 
	C437.799530,219.772324 423.030457,211.088074 408.160065,202.580917 
	C403.351990,199.830276 398.278015,197.544403 393.325684,195.045914 
z" data-index="56" style="opacity: 1;"></path>
<path fill="#4079B8" opacity="1.000000" stroke="none" d="
M456.037384,481.601379 
	C450.963013,479.162628 445.731384,477.001343 440.844421,474.231873 
	C427.424988,466.626801 414.213135,458.654907 400.777832,451.078705 
	C397.014374,448.956482 395.294678,446.547699 395.498718,442.047668 
	C395.726624,437.022003 394.924377,431.949677 394.343262,426.236938 
	C394.430145,423.657959 395.004791,421.741302 395.016479,419.821228 
	C395.096863,406.610901 395.042358,393.399841 395.077026,380.189087 
	C395.082794,377.981720 394.423492,375.231323 398.042389,375.532104 
	C398.489166,377.026306 398.675140,378.738373 399.570404,379.281555 
	C415.619751,389.020111 431.702728,398.706787 447.922668,408.157166 
	C450.647461,409.744720 454.044373,410.178802 457.043091,411.549927 
	C456.630432,413.724152 456.026611,415.493652 456.022766,417.264465 
	C455.976318,438.709991 456.018372,460.155731 456.037384,481.601379 
z" data-index="57" style="opacity: 1;"></path>
<path fill="#3E79B8" opacity="1.000000" stroke="none" d="
M334.942566,317.134247 
	C330.150543,314.474457 325.419739,311.695129 320.543610,309.199646 
	C317.611816,307.699280 316.700317,305.586731 316.719788,302.376526 
	C316.847931,281.212067 316.810303,260.046600 317.284454,238.460037 
	C319.822968,238.714661 321.903717,239.390701 324.183685,240.328384 
	C325.909668,241.397751 327.436462,242.205475 329.020172,243.326736 
	C329.718567,244.059509 330.360077,244.478729 331.351135,244.944946 
	C333.114044,245.668839 334.527374,246.345764 336.003754,247.335419 
	C336.711639,248.064819 337.356506,248.481506 338.338196,248.986237 
	C340.099335,249.722733 341.523682,250.371170 343.009521,251.332687 
	C343.714539,252.069168 344.358063,252.492569 345.245117,252.948486 
	C345.488647,252.981003 345.979309,253.006943 346.033661,253.319763 
	C346.725708,254.042343 347.363403,254.452103 348.355286,254.943176 
	C353.003326,257.383850 357.192780,259.965057 361.617004,262.047394 
	C367.357269,264.749176 371.955383,270.306702 379.084747,269.653320 
	C378.281952,271.586731 377.043182,273.171265 377.037933,274.759857 
	C376.965149,296.803040 377.061493,318.846771 376.749451,340.918732 
	C368.901062,336.760681 361.384857,332.635071 353.949005,328.369354 
	C347.565796,324.707520 341.274506,320.885468 334.942566,317.134247 
z" data-index="58" style="opacity: 1;"></path>
<path fill="#34436A" opacity="1.000000" stroke="none" d="
M456.429688,481.604279 
	C456.018372,460.155731 455.976318,438.709991 456.022766,417.264465 
	C456.026611,415.493652 456.630432,413.724152 457.376740,411.452179 
	C463.957733,407.379211 470.106598,403.789154 476.279510,400.240936 
	C488.789581,393.049988 501.312683,385.881744 514.178040,378.937866 
	C515.003357,380.849274 515.898560,382.528259 515.893738,384.204590 
	C515.849060,399.630402 515.648621,415.055756 515.493469,430.481262 
	C515.491638,430.647034 515.493835,430.812927 515.487427,430.978516 
	C515.264526,436.742523 516.832886,443.525665 514.301270,447.977020 
	C511.884186,452.227020 505.233032,454.110413 500.380280,456.925812 
	C487.509521,464.393036 474.611359,471.813110 461.705109,479.218872 
	C460.136902,480.118683 458.452484,480.815979 456.429688,481.604279 
z" data-index="59"></path>
<path fill="#3F79B8" opacity="1.000000" stroke="none" d="
M316.881042,391.045441 
	C316.851044,380.662292 316.821075,370.279175 317.159485,359.162842 
	C317.527863,350.069397 317.527863,341.709106 317.527863,332.881470 
	C319.532104,333.265015 320.240540,333.226288 320.753479,333.524139 
	C334.458557,341.482025 348.098724,349.552856 361.855560,357.419830 
	C366.830780,360.264984 372.077271,362.635712 377.146362,365.669128 
	C377.032593,389.122986 376.972473,412.130676 376.912354,435.138367 
	C374.824646,434.312408 372.600250,433.725647 370.670654,432.623016 
	C353.517487,422.821259 336.409332,412.940521 319.319733,403.028168 
	C318.399963,402.494659 317.764984,401.470123 317.277618,400.055878 
	C317.332245,396.640198 317.106628,393.842834 316.881042,391.045441 
z" data-index="60" style="opacity: 1;"></path>
<path fill="#35436A" opacity="1.000000" stroke="none" d="
M591.271729,334.443909 
	C591.323181,356.267548 591.429810,378.091431 591.318787,399.914246 
	C591.310120,401.614868 590.237610,404.096161 588.884399,404.885254 
	C570.237305,415.758484 551.454102,426.398346 532.364990,436.586792 
	C532.071960,413.108765 532.118347,390.139343 532.468750,367.006012 
	C546.120972,359.161346 559.415649,351.385376 572.841614,343.843109 
	C578.849182,340.468292 585.120239,337.562531 591.271729,334.443909 
z" data-index="61" style="opacity: 1;"></path>
<path fill="#344269" opacity="1.000000" stroke="none" d="
M591.131042,239.689728 
	C591.225220,261.726807 591.392029,283.764252 591.268433,305.800110 
	C591.259094,307.468994 589.547974,309.677246 588.006897,310.686798 
	C583.171753,313.854279 578.039490,316.568420 572.441772,319.715881 
	C558.637756,327.586884 545.414246,335.200134 532.137573,342.365784 
	C532.044495,320.051544 531.984558,298.184845 532.011169,276.318268 
	C532.012878,274.897919 532.679993,273.478363 533.309875,271.975616 
	C534.037781,271.569946 534.493469,271.247131 535.265015,270.932739 
	C536.135742,270.398285 536.690674,269.855377 537.532104,269.218140 
	C538.184998,268.958557 538.551208,268.793365 539.255981,268.684814 
	C541.141296,267.540894 542.688110,266.340302 544.535889,265.087982 
	C545.546082,264.646729 546.255249,264.257202 547.321533,263.870789 
	C554.550598,259.642242 561.422607,255.410568 568.577637,251.135071 
	C569.215454,250.952255 569.570374,250.813293 570.266113,250.724487 
	C572.158813,249.568802 573.710510,248.362991 575.550781,247.113983 
	C576.199280,246.925751 576.559143,246.780701 577.258423,246.691223 
	C579.154175,245.551346 580.710632,244.355911 582.554077,243.116791 
	C583.199280,242.928864 583.557556,242.784622 584.253418,242.697189 
	C586.383179,241.765320 588.175232,240.776627 590.265747,239.852432 
	C590.753113,239.841202 590.942078,239.765457 591.131042,239.689728 
z" data-index="62" style="opacity: 1;"></path>
<path fill="#53ACE6" opacity="1.000000" stroke="none" d="
M377.199982,365.222931 
	C372.077271,362.635712 366.830780,360.264984 361.855560,357.419830 
	C348.098724,349.552856 334.458557,341.482025 320.753479,333.524139 
	C320.240540,333.226288 319.532104,333.265015 317.527863,332.881470 
	C317.527863,341.709106 317.527863,350.069397 317.204956,358.693115 
	C316.773132,350.412109 316.490204,341.863068 316.717987,333.327606 
	C316.758331,331.815247 318.661652,329.970062 320.161896,328.952728 
	C324.255432,326.176727 328.654388,323.853973 332.790680,321.136047 
	C333.793152,320.477295 334.248718,318.986267 334.949158,317.506104 
	C341.274506,320.885468 347.565796,324.707520 353.949005,328.369354 
	C361.384857,332.635071 368.901062,336.760681 377.086121,340.898895 
	C382.776978,338.125977 387.764069,335.401306 393.163879,332.837402 
	C394.037140,340.313568 394.497711,347.628998 394.735321,355.199097 
	C388.741577,358.710175 382.970764,361.966553 377.199982,365.222931 
z" data-index="63" style="opacity: 1;"></path>
<path fill="#51AAE3" opacity="1.000000" stroke="none" d="
M532.190796,342.813416 
	C545.414246,335.200134 558.637756,327.586884 572.179749,319.962280 
	C573.667786,321.162781 574.679016,322.601959 576.035095,323.545929 
	C581.064453,327.046814 586.207397,330.384521 591.289673,334.113708 
	C585.120239,337.562531 578.849182,340.468292 572.841614,343.843109 
	C559.415649,351.385376 546.120972,359.161346 532.081177,366.935547 
	C526.223572,364.324036 520.977234,361.756104 515.953186,358.809052 
	C514.824890,358.147186 514.473755,356.160400 514.033447,354.461334 
	C514.621033,352.417114 515.142151,350.704193 515.219849,348.971405 
	C515.424683,344.402252 515.436951,339.824432 515.633484,335.226379 
	C515.741028,335.202667 515.953430,335.144470 516.323975,335.134033 
	C518.435242,335.935364 520.195862,336.707306 521.912354,337.567383 
	C525.351257,339.290558 528.766052,341.061951 532.190796,342.813416 
z" data-index="64" style="opacity: 1;"></path>
<path fill="#344269" opacity="1.000000" stroke="none" d="
M377.146362,365.669128 
	C382.970764,361.966553 388.741577,358.710175 395.130402,355.227905 
	C401.229156,357.743683 406.761749,360.390961 412.127136,363.342316 
	C412.824951,363.726227 412.660980,365.676727 412.555573,366.992371 
	C407.513855,369.790741 402.812775,372.498352 398.111694,375.205933 
	C394.423492,375.231323 395.082794,377.981720 395.077026,380.189087 
	C395.042358,393.399841 395.096863,406.610901 395.016479,419.821228 
	C395.004791,421.741302 394.430145,423.657959 394.051453,425.935455 
	C388.548645,429.284210 383.110382,432.273743 377.292236,435.200806 
	C376.972473,412.130676 377.032593,389.122986 377.146362,365.669128 
z" data-index="65" style="opacity: 1;"></path>
<path fill="#4078B5" opacity="1.000000" stroke="none" d="
M513.764832,354.783569 
	C514.473755,356.160400 514.824890,358.147186 515.953186,358.809052 
	C520.977234,361.756104 526.223572,364.324036 531.777100,367.099487 
	C532.118347,390.139343 532.071960,413.108765 531.997375,436.547668 
	C528.491577,435.429718 525.037842,433.786896 521.526367,432.278351 
	C519.798828,431.536224 517.964478,431.042664 515.835938,430.458923 
	C515.648621,415.055756 515.849060,399.630402 515.893738,384.204590 
	C515.898560,382.528259 515.003357,380.849274 514.210022,378.595306 
	C512.698120,376.634552 511.715118,374.943298 510.259827,373.931183 
	C507.471619,371.991974 504.548950,370.114899 501.428925,368.823853 
	C498.755341,367.717590 495.728271,367.465576 492.954895,366.505157 
	C495.622986,364.728271 498.180969,363.258789 500.767303,361.840942 
	C505.090271,359.471100 509.431366,357.134277 513.764832,354.783569 
z" data-index="66" style="opacity: 1;"></path>
<path fill="#34456C" opacity="1.000000" stroke="none" d="
M452.985229,228.940231 
	C471.858856,217.949249 490.725220,206.945709 509.624786,195.999512 
	C510.722778,195.363571 512.089966,195.192459 513.696533,194.648743 
	C514.231567,200.022339 514.401978,205.552216 514.319946,211.619995 
	C513.665161,212.756760 513.262817,213.355606 512.540649,214.067596 
	C499.110992,221.754807 486.001160,229.328873 472.503967,237.013611 
	C471.762451,240.415985 471.452026,243.713150 471.040741,246.997711 
	C470.688293,249.812531 470.220245,252.612854 469.462219,255.289597 
	C465.148621,253.009872 461.176117,250.860153 457.071106,248.360825 
	C453.650970,246.979126 452.688019,244.789047 452.956696,241.391800 
	C453.282990,237.266342 453.002960,233.092911 452.985229,228.940231 
z" data-index="67"></path>
<path fill="#3E7AB9" opacity="1.000000" stroke="none" d="
M452.796600,228.664017 
	C453.002960,233.092911 453.282990,237.266342 452.956696,241.391800 
	C452.688019,244.789047 453.650970,246.979126 456.654175,248.451111 
	C454.513214,249.417145 452.556305,249.722610 450.819489,250.512177 
	C446.222473,252.602066 441.720703,254.901474 437.112488,256.646301 
	C437.022278,251.445465 437.164032,246.706070 436.883118,241.991867 
	C436.794464,240.504288 435.574066,239.084137 434.877197,237.282379 
	C433.816650,235.639236 433.000427,233.928223 431.645630,233.119720 
	C419.146271,225.660492 406.553802,218.357254 393.973999,210.716492 
	C393.654419,209.968643 393.349274,209.512924 393.044128,209.057190 
	C393.065186,204.688385 393.086273,200.319550 393.216492,195.498322 
	C398.278015,197.544403 403.351990,199.830276 408.160065,202.580917 
	C423.030457,211.088074 437.799530,219.772324 452.796600,228.664017 
z" data-index="68"></path>
<path fill="#54AEE8" opacity="1.000000" stroke="none" d="
M512.860474,213.954468 
	C513.262817,213.355606 513.665161,212.756760 514.327759,212.085495 
	C519.094849,209.651230 523.694031,207.446274 528.073608,204.868210 
	C530.665039,203.342728 532.569763,203.393448 535.243225,204.989075 
	C552.673523,215.392044 570.258423,225.535767 587.752075,235.833313 
	C589.079285,236.614594 590.092224,237.929733 591.191162,239.343231 
	C590.942078,239.765457 590.753113,239.841202 590.046997,239.615280 
	C588.030273,239.547897 586.530884,239.782181 584.680847,239.978027 
	C579.371826,236.695892 574.515930,233.280243 569.432434,230.246094 
	C560.329773,224.813141 550.879456,219.937820 541.967407,214.217346 
	C533.246948,208.619904 530.026184,207.762848 522.480835,213.531616 
	C518.824280,216.327209 516.182739,216.306442 512.860474,213.954468 
z" data-index="69"></path>
<path fill="#54AEE8" opacity="1.000000" stroke="none" d="
M392.648743,209.064636 
	C393.349274,209.512924 393.654419,209.968643 393.698822,210.917053 
	C392.072083,213.929276 390.715576,214.186417 387.897125,212.724609 
	C382.442078,209.895248 377.634918,205.041428 370.082550,209.885941 
	C356.780151,218.418777 342.651581,225.654938 329.050995,233.740250 
	C326.876862,235.032730 325.649536,237.917892 323.984497,240.066742 
	C321.903717,239.390701 319.822968,238.714661 317.369965,237.994415 
	C319.337555,235.847290 321.408691,233.292328 324.061340,231.715790 
	C339.718353,222.410324 355.559875,213.415421 371.222321,204.118973 
	C375.097168,201.819046 378.232147,201.454803 382.110443,204.260361 
	C385.091583,206.416977 388.843964,207.507477 392.648743,209.064636 
z" data-index="70"></path>
<path fill="#53ACE6" opacity="1.000000" stroke="none" d="
M316.627258,391.332672 
	C317.106628,393.842834 317.332245,396.640198 317.259766,399.693695 
	C316.765594,397.173157 316.569550,394.396545 316.627258,391.332672 
z" data-index="71"></path>
<path fill="#4DAAE6" opacity="1.000000" stroke="none" d="
M492.857544,366.835754 
	C495.728271,367.465576 498.755341,367.717590 501.428925,368.823853 
	C504.548950,370.114899 507.471619,371.991974 510.259827,373.931183 
	C511.715118,374.943298 512.698120,376.634552 513.862427,378.361633 
	C501.312683,385.881744 488.789581,393.049988 476.279510,400.240936 
	C470.106598,403.789154 463.957733,407.379211 457.464355,411.048096 
	C454.044373,410.178802 450.647461,409.744720 447.922668,408.157166 
	C431.702728,398.706787 415.619751,389.020111 399.570404,379.281555 
	C398.675140,378.738373 398.489166,377.026306 398.042389,375.532104 
	C402.812775,372.498352 407.513855,369.790741 412.934326,366.999847 
	C415.810059,367.170624 418.303345,366.810547 420.067993,367.778625 
	C431.336212,373.960358 442.410248,380.495697 453.658295,386.715454 
	C454.757965,387.323547 456.604248,386.581390 458.402771,386.253845 
	C470.086884,379.639740 481.472229,373.237732 492.857544,366.835754 
z" data-index="72"></path>
<path fill="#4EACE8" opacity="1.000000" stroke="none" d="
M324.183716,240.328384 
	C325.649536,237.917892 326.876862,235.032730 329.050995,233.740250 
	C342.651581,225.654938 356.780151,218.418777 370.082550,209.885941 
	C377.634918,205.041428 382.442078,209.895248 387.897125,212.724609 
	C390.715576,214.186417 392.072083,213.929276 393.713257,211.209198 
	C406.553802,218.357254 419.146271,225.660492 431.645630,233.119720 
	C433.000427,233.928223 433.816650,235.639236 434.546295,237.433746 
	C415.880676,248.392700 397.551483,258.849518 379.222290,269.306366 
	C371.955383,270.306702 367.357269,264.749176 361.617004,262.047394 
	C357.192780,259.965057 353.003326,257.383850 348.306091,254.638428 
	C347.261536,253.837219 346.620422,253.422073 345.979309,253.006927 
	C345.979309,253.006943 345.488647,252.981003 345.197693,252.634827 
	C344.253815,251.865631 343.600922,251.442612 342.948029,251.019608 
	C341.523682,250.371170 340.099335,249.722733 338.289490,248.674408 
	C337.249573,247.857224 336.595154,247.439941 335.940735,247.022675 
	C334.527374,246.345764 333.114044,245.668839 331.303192,244.634537 
	C330.258209,243.855835 329.610718,243.434525 328.963257,243.013199 
	C327.436462,242.205475 325.909668,241.397751 324.183716,240.328384 
z" data-index="73" style="opacity: 1;"></path>
<path fill="#32426A" opacity="1.000000" stroke="none" d="
M379.084747,269.653320 
	C397.551483,258.849518 415.880676,248.392700 434.540771,237.784500 
	C435.574066,239.084137 436.794464,240.504288 436.883118,241.991867 
	C437.164032,246.706070 437.022278,251.445465 436.966888,256.953674 
	C435.696014,258.590210 434.564850,259.556427 433.298645,260.289246 
	C421.244934,267.265228 409.168335,274.201630 396.718109,281.265381 
	C395.910065,283.053864 395.124237,284.723602 395.111176,286.399384 
	C395.009277,299.443848 395.170776,312.491394 394.953064,325.533020 
	C394.913147,327.925812 393.519836,330.295990 392.751190,332.676605 
	C387.764069,335.401306 382.776978,338.125977 377.453186,340.870514 
	C377.061493,318.846771 376.965149,296.803040 377.037933,274.759857 
	C377.043182,273.171265 378.281952,271.586731 379.084747,269.653320 
z" data-index="74" style="opacity: 1;"></path>
<path fill="#51AAE3" opacity="1.000000" stroke="none" d="
M336.003754,247.335403 
	C336.595154,247.439941 337.249573,247.857224 337.952698,248.586334 
	C337.356506,248.481506 336.711639,248.064819 336.003754,247.335403 
z" data-index="75"></path>
<path fill="#51AAE3" opacity="1.000000" stroke="none" d="
M343.009521,251.332687 
	C343.600922,251.442612 344.253815,251.865631 344.954163,252.602295 
	C344.358063,252.492569 343.714539,252.069168 343.009521,251.332687 
z" data-index="76"></path>
<path fill="#51AAE3" opacity="1.000000" stroke="none" d="
M346.033661,253.319748 
	C346.620422,253.422073 347.261536,253.837219 347.951874,254.557114 
	C347.363403,254.452103 346.725708,254.042343 346.033661,253.319748 
z" data-index="77"></path>
<path fill="#51AAE3" opacity="1.000000" stroke="none" d="
M329.020172,243.326736 
	C329.610718,243.434525 330.258209,243.855835 330.953613,244.587555 
	C330.360077,244.478729 329.718567,244.059509 329.020172,243.326736 
z" data-index="78"></path>
<path fill="#4EACE8" opacity="1.000000" stroke="none" d="
M512.540649,214.067596 
	C516.182739,216.306442 518.824280,216.327209 522.480835,213.531616 
	C530.026184,207.762848 533.246948,208.619904 541.967407,214.217346 
	C550.879456,219.937820 560.329773,224.813141 569.432434,230.246094 
	C574.515930,233.280243 579.371826,236.695892 584.558960,240.242126 
	C584.497009,241.243210 584.206360,241.941788 583.915771,242.640381 
	C583.557556,242.784622 583.199280,242.928864 582.184326,243.082947 
	C579.991394,244.273758 578.455200,245.454697 576.919067,246.635651 
	C576.559143,246.780701 576.199280,246.925751 575.180908,247.082489 
	C572.990051,248.287567 571.457642,249.480957 569.925232,250.674347 
	C569.570374,250.813293 569.215454,250.952255 568.194336,251.097870 
	C562.789673,253.691910 557.978271,256.156799 553.343811,258.918732 
	C551.049194,260.286224 549.080566,262.200684 546.964478,263.867676 
	C546.255249,264.257202 545.546082,264.646729 544.168579,265.060364 
	C541.972717,266.265686 540.445129,267.446930 538.917480,268.628174 
	C538.551208,268.793365 538.184998,268.958557 537.193970,269.148438 
	C536.029114,269.756805 535.489136,270.340546 534.949158,270.924316 
	C534.493469,271.247131 534.037781,271.569946 532.914124,271.946411 
	C530.528198,271.493317 528.625610,271.304749 527.120605,270.431335 
	C510.020569,260.507751 492.964508,250.507904 475.959961,240.421677 
	C474.688660,239.667603 473.902802,238.095032 472.891296,236.902954 
	C486.001160,229.328873 499.110992,221.754807 512.540649,214.067596 
z" data-index="79"></path>
<path fill="#3D78B6" opacity="1.000000" stroke="none" d="
M472.503967,237.013611 
	C473.902802,238.095032 474.688660,239.667603 475.959961,240.421677 
	C492.964508,250.507904 510.020569,260.507751 527.120605,270.431335 
	C528.625610,271.304749 530.528198,271.493317 532.641846,272.029236 
	C532.679993,273.478363 532.012878,274.897919 532.011169,276.318268 
	C531.984558,298.184845 532.044495,320.051544 532.137573,342.365814 
	C528.766052,341.061951 525.351257,339.290558 521.912354,337.567383 
	C520.195862,336.707306 518.435242,335.935364 516.462769,334.795715 
	C516.175781,332.989929 516.120605,331.512024 516.033997,329.689484 
	C516.023315,328.884430 516.044067,328.423981 516.348633,327.665833 
	C516.751831,315.655609 516.888184,303.943176 516.950012,292.230316 
	C516.953857,291.500458 516.373169,290.767517 516.028076,289.616364 
	C516.001587,287.793091 516.011414,286.389496 516.250610,284.804047 
	C515.927734,284.052002 515.375488,283.481781 514.793457,282.573303 
	C509.601318,279.134918 504.447815,276.019958 499.274719,272.937866 
	C489.456848,267.088531 479.627777,261.257965 469.803345,255.419601 
	C470.220245,252.612854 470.688293,249.812531 471.040741,246.997711 
	C471.452026,243.713150 471.762451,240.415985 472.503967,237.013611 
z" data-index="80" style="opacity: 1;"></path>
<path fill="#4997CC" opacity="1.000000" stroke="none" d="
M547.321533,263.870789 
	C549.080566,262.200684 551.049194,260.286224 553.343811,258.918732 
	C557.978271,256.156799 562.789673,253.691910 567.911377,251.141708 
	C561.422607,255.410568 554.550598,259.642242 547.321533,263.870789 
z" data-index="81"></path>
<path fill="#4997CC" opacity="1.000000" stroke="none" d="
M584.253418,242.697174 
	C584.206360,241.941788 584.497009,241.243210 584.909546,240.280548 
	C586.530884,239.782181 588.030273,239.547897 589.748535,239.550781 
	C588.175232,240.776627 586.383179,241.765320 584.253418,242.697174 
z" data-index="82"></path>
<path fill="#4997CC" opacity="1.000000" stroke="none" d="
M577.258423,246.691223 
	C578.455200,245.454697 579.991394,244.273758 581.897339,243.126648 
	C580.710632,244.355911 579.154175,245.551346 577.258423,246.691223 
z" data-index="83"></path>
<path fill="#4997CC" opacity="1.000000" stroke="none" d="
M570.266113,250.724487 
	C571.457642,249.480957 572.990051,248.287567 574.892334,247.125671 
	C573.710510,248.362991 572.158813,249.568802 570.266113,250.724487 
z" data-index="84"></path>
<path fill="#4997CC" opacity="1.000000" stroke="none" d="
M539.255981,268.684814 
	C540.445129,267.446930 541.972717,266.265686 543.867615,265.112091 
	C542.688110,266.340302 541.141296,267.540894 539.255981,268.684814 
z" data-index="85"></path>
<path fill="#3D78B6" opacity="1.000000" stroke="none" d="
M535.265015,270.932739 
	C535.489136,270.340546 536.029114,269.756805 536.907349,269.242798 
	C536.690674,269.855377 536.135742,270.398285 535.265015,270.932739 
z" data-index="86"></path>
<path fill="#3D78B7" opacity="1.000000" stroke="none" d="
M393.163879,332.837402 
	C393.519836,330.295990 394.913147,327.925812 394.953064,325.533020 
	C395.170776,312.491394 395.009277,299.443848 395.111176,286.399384 
	C395.124237,284.723602 395.910065,283.053864 396.709900,281.626465 
	C397.606232,282.819946 397.886993,284.183746 398.690979,284.654999 
	C413.433350,293.296570 428.212006,301.877441 443.046875,310.359344 
	C447.289093,312.784882 451.732635,314.858276 456.063965,317.520569 
	C455.721405,323.724365 455.105682,329.502502 455.141205,335.276672 
	C455.202271,345.207336 455.726776,355.134247 455.943512,365.065216 
	C456.066650,370.707764 455.817139,376.361603 456.062469,381.996124 
	C456.128510,383.512817 457.390808,384.977478 458.103973,386.466003 
	C456.604248,386.581390 454.757965,387.323547 453.658295,386.715454 
	C442.410248,380.495697 431.336212,373.960358 420.067993,367.778625 
	C418.303345,366.810547 415.810059,367.170624 413.274963,366.909058 
	C412.660980,365.676727 412.824951,363.726227 412.127136,363.342316 
	C406.761749,360.390961 401.229156,357.743683 395.353363,354.973206 
	C394.497711,347.628998 394.037140,340.313568 393.163879,332.837402 
z" data-index="87" style="opacity: 1;"></path>
<path fill="#324169" opacity="1.000000" stroke="none" d="
M458.402771,386.253876 
	C457.390808,384.977478 456.128510,383.512817 456.062469,381.996124 
	C455.817139,376.361603 456.066650,370.707764 455.943512,365.065216 
	C455.726776,355.134247 455.202271,345.207336 455.141205,335.276672 
	C455.105682,329.502502 455.721405,323.724365 456.374023,317.368927 
	C474.096008,306.794952 491.488037,296.800049 509.203125,286.838806 
	C510.070099,286.304535 510.614044,285.736603 511.437653,285.094910 
	C512.081299,284.893921 512.445251,284.766785 513.203613,284.736389 
	C514.405762,284.884033 515.213501,284.934967 516.021240,284.985901 
	C516.011414,286.389496 516.001587,287.793091 515.730469,289.904114 
	C515.363708,302.502533 515.245605,314.393433 515.191895,326.284668 
	C515.189392,326.842926 515.760681,327.403839 516.064758,327.963531 
	C516.044067,328.423981 516.023315,328.884430 515.746216,329.946777 
	C515.501831,332.115845 515.513855,333.682953 515.525940,335.250092 
	C515.436951,339.824432 515.424683,344.402252 515.219849,348.971405 
	C515.142151,350.704193 514.621033,352.417114 514.033447,354.461304 
	C509.431366,357.134277 505.090271,359.471100 500.767303,361.840942 
	C498.180969,363.258789 495.622986,364.728271 492.954895,366.505157 
	C481.472229,373.237732 470.086884,379.639740 458.402771,386.253876 
z" data-index="88" style="opacity: 1;"></path>
<path fill="#4078B5" opacity="1.000000" stroke="none" d="
M515.633484,335.226379 
	C515.513855,333.682953 515.501831,332.115845 515.777588,330.291382 
	C516.120605,331.512024 516.175781,332.989929 516.092163,334.806152 
	C515.953430,335.144470 515.741028,335.202667 515.633484,335.226379 
z" data-index="89"></path>
<path fill="#4DACE7" opacity="1.000000" stroke="none" d="
M508.880096,286.805145 
	C491.488037,296.800049 474.096008,306.794952 456.393890,316.941498 
	C451.732635,314.858276 447.289093,312.784882 443.046875,310.359344 
	C428.212006,301.877441 413.433350,293.296570 398.690979,284.654999 
	C397.886993,284.183746 397.606232,282.819946 397.090118,281.510498 
	C409.168335,274.201630 421.244934,267.265228 433.298645,260.289246 
	C434.564850,259.556427 435.696014,258.590210 437.035461,257.424896 
	C441.720703,254.901474 446.222473,252.602066 450.819489,250.512177 
	C452.556305,249.722610 454.513214,249.417145 456.786713,248.800720 
	C461.176117,250.860153 465.148621,253.009872 469.462219,255.289597 
	C479.627777,261.257965 489.456848,267.088531 499.274719,272.937866 
	C504.447815,276.019958 509.601318,279.134918 514.510681,282.625366 
	C513.774902,283.557037 513.292053,284.098328 512.809204,284.639648 
	C512.445251,284.766785 512.081299,284.893921 511.112579,285.063416 
	C509.965271,285.672241 509.422699,286.238708 508.880096,286.805145 
z" data-index="90" style="opacity: 1;"></path>
<path fill="#4078B5" opacity="1.000000" stroke="none" d="
M516.348633,327.665833 
	C515.760681,327.403839 515.189392,326.842926 515.191895,326.284668 
	C515.245605,314.393433 515.363708,302.502533 515.766846,290.323792 
	C516.373169,290.767517 516.953857,291.500458 516.950012,292.230316 
	C516.888184,303.943176 516.751831,315.655609 516.348633,327.665833 
z" data-index="91"></path>
<path fill="#4078B5" opacity="1.000000" stroke="none" d="
M513.203613,284.736359 
	C513.292053,284.098328 513.774902,283.557037 514.540466,282.963654 
	C515.375488,283.481781 515.927734,284.052002 516.250610,284.804047 
	C515.213501,284.934967 514.405762,284.884033 513.203613,284.736359 
z" data-index="92"></path>
<path fill="#3D78B6" opacity="1.000000" stroke="none" d="
M509.203125,286.838806 
	C509.422699,286.238708 509.965271,285.672241 510.832916,285.137238 
	C510.614044,285.736603 510.070099,286.304535 509.203125,286.838806 
z" data-index="93"></path>
</svg>