<svg xmlns="http://www.w3.org/2000/svg" xmlns:xlink="http://www.w3.org/1999/xlink" viewBox="0,0,256,256" width="480px" height="480px" fill-rule="nonzero"><g fill="#00acc1" fill-rule="nonzero" stroke="none" stroke-width="1" stroke-linecap="butt" stroke-linejoin="miter" stroke-miterlimit="10" stroke-dasharray="" stroke-dashoffset="0" font-family="none" font-weight="none" font-size="none" text-anchor="none" style="mix-blend-mode: normal"><g transform="translate(0,-17.06933) scale(5.33333,5.33333)"><path d="M24,9.604c-6.4,0 -10.4,3.199 -12,9.597c2.4,-3.199 5.2,-4.398 8.4,-3.599c1.826,0.456 3.131,1.781 4.576,3.247c2.352,2.387 5.075,5.151 11.024,5.151c6.4,0 10.4,-3.199 12,-9.598c-2.4,3.199 -5.2,4.399 -8.4,3.6c-1.825,-0.456 -3.13,-1.781 -4.575,-3.247c-2.353,-2.388 -5.077,-5.151 -11.025,-5.151zM12,24c-6.4,0 -10.4,3.199 -12,9.598c2.4,-3.199 5.2,-4.399 8.4,-3.599c1.825,0.457 3.13,1.781 4.575,3.246c2.353,2.388 5.077,5.152 11.025,5.152c6.4,0 10.4,-3.199 12,-9.598c-2.4,3.199 -5.2,4.399 -8.4,3.599c-1.826,-0.456 -3.131,-1.781 -4.576,-3.246c-2.352,-2.388 -5.075,-5.152 -11.024,-5.152z"></path></g></g><g fill="#5e5760" fill-rule="nonzero" stroke="none" stroke-width="1" stroke-linecap="butt" stroke-linejoin="miter" stroke-miterlimit="10" stroke-dasharray="" stroke-dashoffset="0" font-family="none" font-weight="none" font-size="none" text-anchor="none" style="mix-blend-mode: normal"><g><path d="M12.85667,212.54667h23.66v7.07h-4.08l-0.22,-2.97h-4.89v18.71l2.85,0.54v3.19h-11.01v-3.19l2.84,-0.54v-18.71h-4.87l-0.22,2.97h-4.06zM55.56667,239.08667h-6.14c-0.14667,-0.32667 -0.27667,-0.66333 -0.39,-1.01c-0.10667,-0.34667 -0.19,-0.69667 -0.25,-1.05v0c-0.63333,0.73333 -1.40333,1.32333 -2.31,1.77c-0.90667,0.45333 -1.94333,0.68 -3.11,0.68v0c-1.92667,0 -3.46,-0.52667 -4.6,-1.58c-1.13333,-1.05333 -1.7,-2.48333 -1.7,-4.29v0c0,-1.84667 0.74,-3.27667 2.22,-4.29c1.48667,-1.00667 3.66333,-1.51 6.53,-1.51v0h2.71v-1.93c0,-0.94667 -0.27333,-1.68333 -0.82,-2.21c-0.54667,-0.52 -1.35333,-0.78 -2.42,-0.78v0c-0.60667,0 -1.14667,0.07 -1.62,0.21c-0.47333,0.14 -0.85667,0.30667 -1.15,0.5v0l-0.35,2.11h-4.01l0.02,-4.37c0.97333,-0.66 2.08667,-1.21333 3.34,-1.66c1.26,-0.45333 2.63333,-0.68 4.12,-0.68v0c2.44,0 4.42333,0.6 5.95,1.8c1.52,1.2 2.28,2.90333 2.28,5.11v0v8.15c0,0.30667 0.00333,0.59333 0.01,0.86c0.00667,0.26667 0.03,0.52 0.07,0.76v0l1.62,0.22zM44.80667,235.53667v0c0.80667,0 1.53667,-0.17333 2.19,-0.52c0.66,-0.34667 1.17,-0.78 1.53,-1.3v0v-3.01h-2.71c-1.13333,0 -1.99,0.26333 -2.57,0.79c-0.58667,0.52667 -0.88,1.16333 -0.88,1.91v0c0,0.66667 0.21667,1.18667 0.65,1.56c0.43333,0.38 1.03,0.57 1.79,0.57zM57.20667,239.08667v-3.19l2.57,-0.54v-12.24l-2.84,-0.54v-3.21h8.16v15.99l2.56,0.54v3.19zM65.09667,210.65667v3.99h-5.32v-3.99zM71.67667,214.40667l-2.84,-0.55v-3.2h8.17v24.7l2.57,0.54v3.19h-10.47v-3.19l2.57,-0.54zM109.41667,219.36667v3.21l-1.99,0.25l-4.12,16.26h-4.45l-3.66,-11.74h-0.11l-3.66,11.74h-4.43l-4.14,-16.26l-1.99,-0.25v-3.21h8.93v3.21l-2.09,0.4l1.86,9.02h0.11l3.68,-12.63h3.57l3.72,12.67h0.11l1.84,-9.04l-2.11,-0.42v-3.21zM111.07667,239.08667v-3.19l2.57,-0.54v-12.24l-2.85,-0.54v-3.21h8.17v15.99l2.55,0.54v3.19zM118.96667,210.65667v3.99h-5.32v-3.99zM122.97667,239.08667v-3.19l2.55,-0.54v-12.24l-2.82,-0.54v-3.21h7.78l0.24,2.82c0.65333,-1.00667 1.46,-1.79 2.42,-2.35c0.96,-0.56 2.03667,-0.84 3.23,-0.84v0c1.99333,0 3.55,0.62667 4.67,1.88c1.11333,1.25333 1.67,3.21667 1.67,5.89v0v8.59l2.56,0.54v3.19h-10.18v-3.19l2.28,-0.54v-8.57c0,-1.32667 -0.26667,-2.26667 -0.8,-2.82c-0.53333,-0.55333 -1.34,-0.83 -2.42,-0.83v0c-0.70667,0 -1.34,0.14333 -1.9,0.43c-0.56,0.28667 -1.02667,0.69 -1.4,1.21v0v10.58l2.15,0.54v3.19zM160.01667,239.08667l-0.4,-2.4c-0.62,0.90667 -1.35,1.6 -2.19,2.08c-0.84667,0.47333 -1.81,0.71 -2.89,0.71v0c-2.43333,0 -4.32,-0.89 -5.66,-2.67c-1.34667,-1.77333 -2.02,-4.11667 -2.02,-7.03v0v-0.38c0,-3.11333 0.67667,-5.62333 2.03,-7.53c1.34667,-1.91333 3.24,-2.87 5.68,-2.87v0c0.98667,0 1.87333,0.21667 2.66,0.65c0.79333,0.43333 1.48667,1.04333 2.08,1.83v0v-7.07l-2.84,-0.55v-3.2h2.84h5.33v24.7l2.55,0.54v3.19zM152.17667,229.39667v0.38c0,1.72667 0.29,3.08333 0.87,4.07c0.58,0.99333 1.52667,1.49 2.84,1.49v0c0.77333,0 1.44667,-0.16 2.02,-0.48c0.57333,-0.31333 1.04,-0.76667 1.4,-1.36v0v-8.37c-0.36,-0.63333 -0.82333,-1.12333 -1.39,-1.47c-0.56667,-0.34667 -1.23333,-0.52 -2,-0.52v0c-1.3,0 -2.24667,0.57667 -2.84,1.73c-0.6,1.16 -0.9,2.67 -0.9,4.53zM199.64667,216.24667v5.25h-3.95l-0.55,-3.53c-0.52,-0.52667 -1.18,-0.94 -1.98,-1.24c-0.79333,-0.30667 -1.73,-0.46 -2.81,-0.46v0c-2.31333,0 -4.09333,0.84 -5.34,2.52c-1.24,1.67333 -1.86,3.86 -1.86,6.56v0v0.93c0,2.7 0.62,4.89333 1.86,6.58c1.23333,1.68667 2.98333,2.53 5.25,2.53v0c1.04,0 1.99667,-0.15 2.87,-0.45c0.86667,-0.30667 1.53667,-0.72 2.01,-1.24v0l0.55,-3.54h3.95v5.25c-1.06667,1.24 -2.43,2.22667 -4.09,2.96c-1.66,0.74 -3.51667,1.11 -5.57,1.11v0c-3.56,0 -6.47667,-1.23333 -8.75,-3.7c-2.27333,-2.46667 -3.41,-5.63333 -3.41,-9.5v0v-0.9c0,-3.84667 1.13,-7.01 3.39,-9.49c2.26,-2.48 5.18333,-3.72 8.77,-3.72v0c2.05333,0 3.90667,0.37333 5.56,1.12c1.65333,0.74667 3.02,1.73333 4.1,2.96zM222.25667,215.59667v5.43h-3.99l-0.7,-3.65c-0.46,-0.29333 -1.13333,-0.54667 -2.02,-0.76c-0.88667,-0.22 -1.83,-0.33 -2.83,-0.33v0c-1.45333,0 -2.58,0.30667 -3.38,0.92c-0.79333,0.61333 -1.19,1.40667 -1.19,2.38v0c0,0.9 0.41667,1.63667 1.25,2.21c0.83333,0.58 2.27,1.19 4.31,1.83v0c2.92667,0.82 5.14667,1.89667 6.66,3.23c1.51333,1.34 2.27,3.09667 2.27,5.27v0c0,2.27333 -0.9,4.06667 -2.7,5.38c-1.8,1.31333 -4.17,1.97 -7.11,1.97v0c-2.1,0 -3.99667,-0.33667 -5.69,-1.01c-1.7,-0.66667 -3.11333,-1.59 -4.24,-2.77v0v-5.54h4.12l0.56,3.77c0.54,0.44 1.26667,0.80333 2.18,1.09c0.92,0.28667 1.94333,0.43 3.07,0.43v0c1.46,0 2.57,-0.3 3.33,-0.9c0.76,-0.59333 1.14,-1.38667 1.14,-2.38v0c0,-1.02667 -0.36333,-1.84667 -1.09,-2.46c-0.72,-0.62 -1.98667,-1.20333 -3.8,-1.75v0c-3.14667,-0.91333 -5.52667,-1.99667 -7.14,-3.25c-1.62,-1.25333 -2.43,-2.96667 -2.43,-5.14v0c0,-2.15333 0.91333,-3.91333 2.74,-5.28c1.82,-1.36667 4.11,-2.06667 6.87,-2.1v0c2.04,0 3.9,0.31 5.58,0.93c1.67333,0.62 3.08333,1.44667 4.23,2.48zM244.89667,215.59667v5.43h-3.99l-0.7,-3.65c-0.46,-0.29333 -1.13333,-0.54667 -2.02,-0.76c-0.88667,-0.22 -1.83,-0.33 -2.83,-0.33v0c-1.45333,0 -2.58,0.30667 -3.38,0.92c-0.79333,0.61333 -1.19,1.40667 -1.19,2.38v0c0,0.9 0.41667,1.63667 1.25,2.21c0.83333,0.58 2.27,1.19 4.31,1.83v0c2.92667,0.82 5.14667,1.89667 6.66,3.23c1.51333,1.34 2.27,3.09667 2.27,5.27v0c0,2.27333 -0.9,4.06667 -2.7,5.38c-1.79333,1.31333 -4.16333,1.97 -7.11,1.97v0c-2.1,0 -3.99667,-0.33667 -5.69,-1.01c-1.7,-0.66667 -3.11333,-1.59 -4.24,-2.77v0v-5.54h4.12l0.56,3.77c0.54,0.44 1.26667,0.80333 2.18,1.09c0.92,0.28667 1.94333,0.43 3.07,0.43v0c1.46,0 2.57,-0.3 3.33,-0.9c0.76,-0.59333 1.14,-1.38667 1.14,-2.38v0c0,-1.02667 -0.36,-1.84667 -1.08,-2.46c-0.72667,-0.62 -1.99667,-1.20333 -3.81,-1.75v0c-3.14667,-0.91333 -5.52667,-1.99667 -7.14,-3.25c-1.62,-1.25333 -2.43,-2.96667 -2.43,-5.14v0c0,-2.15333 0.91333,-3.91333 2.74,-5.28c1.82,-1.36667 4.11,-2.06667 6.87,-2.1v0c2.04,0 3.9,0.31 5.58,0.93c1.67333,0.62 3.08333,1.44667 4.23,2.48z"></path></g></g></svg>