<svg version="1.1" id="Layer_1" xmlns="http://www.w3.org/2000/svg" xmlns:xlink="http://www.w3.org/1999/xlink" x="0px" y="0px" width="100%" viewBox="0 0 500 500" enable-background="new 0 0 500 500" xml:space="preserve">

<path fill="#828282" opacity="1.000000" stroke="none" d="
M146.955048,40.859726 
	C146.981934,40.525585 147.136993,40.268852 148.021454,39.992516 
	C154.728989,36.223759 160.835312,32.552025 166.941635,28.880289 
	C166.941635,28.880289 166.970016,28.983568 167.098160,28.849436 
	C167.480453,28.539282 167.728683,28.355293 167.971008,28.163338 
	C170.122192,27.186327 172.254562,26.165146 174.427704,25.239685 
	C185.953445,20.331301 197.532547,15.583382 210.743500,14.072748 
	C212.251053,13.848615 213.111588,13.504642 213.972122,13.160668 
	C214.702103,13.074247 215.432098,12.987828 216.823059,13.070202 
	C219.980743,12.541775 222.477417,11.844555 224.974106,11.147336 
	C230.696655,10.764919 236.419220,10.382503 242.960205,10.242665 
	C248.539276,10.283579 253.299896,10.081912 258.060516,9.880245 
	C263.422119,10.256146 268.783752,10.632049 274.796875,11.371370 
	C279.691742,12.822538 283.915253,14.002676 288.195312,14.918801 
	C289.034607,15.098445 290.092560,14.256598 291.049652,13.885876 
	C306.037140,15.970526 319.941681,21.399334 333.401062,27.990791 
	C340.351898,31.394800 346.973541,35.471035 353.996460,39.892342 
	C356.213623,41.678230 358.178284,42.815331 360.142914,43.952435 
	C360.475067,43.983967 360.730530,44.140591 361.125183,44.935905 
	C362.263672,45.945293 363.186310,46.441090 364.108917,46.936882 
	C364.108917,46.936882 364.045593,46.949608 364.139160,47.258694 
	C366.194763,49.021770 368.156830,50.475761 370.118866,51.929749 
	C370.118866,51.929745 370.053345,51.937565 370.204529,52.198746 
	C371.281403,52.958683 372.207092,53.457436 373.132812,53.956192 
	C388.095764,66.050507 400.565918,80.273491 411.289185,96.301796 
	C420.693848,110.359138 427.956116,125.265358 433.067169,141.282455 
	C437.298431,154.542221 440.757233,167.972153 441.027832,182.033218 
	C441.106934,186.142105 441.789703,190.237198 441.926147,194.347549 
	C442.802094,220.738770 439.269226,246.428940 429.473206,271.093658 
	C422.708740,288.125427 413.839661,304.008484 402.192566,318.138123 
	C394.820923,327.081055 387.178741,335.997253 378.513062,343.624725 
	C368.868927,352.113312 358.384735,359.871674 347.441895,366.609131 
	C330.120483,377.273895 311.125702,384.306976 291.147034,388.346283 
	C284.743317,389.641022 278.199097,390.463654 271.678711,390.905426 
	C262.267822,391.543091 252.806427,392.127106 243.390625,391.866302 
	C219.091202,391.193329 195.767609,386.177338 173.397369,376.239502 
	C150.825714,366.212250 131.381424,352.038483 114.129463,334.606232 
	C101.548218,321.893463 90.696190,307.757324 82.193367,292.088959 
	C73.329117,275.754517 66.676147,258.368225 63.143692,240.051620 
	C59.748672,222.447647 59.165737,204.526154 60.134583,186.685150 
	C61.320606,164.844788 66.529343,143.762314 75.138580,123.640823 
	C77.991234,116.973610 81.872040,110.746292 85.919861,104.049576 
	C89.036049,100.856964 91.515144,97.932648 94.012421,95.035599 
	C94.030609,95.062866 94.008659,94.993927 94.007195,94.604393 
	C93.990845,93.435944 93.975967,92.657028 93.961090,91.878113 
	C93.986938,91.541222 94.142082,91.281586 94.941231,90.878738 
	C95.945793,89.729988 96.435638,88.801704 96.925491,87.873421 
	C96.925491,87.873421 96.933685,87.938835 97.245598,87.852020 
	C98.688698,86.126801 99.819878,84.488396 100.951065,82.849991 
	C101.275337,82.395531 101.599602,81.941063 102.174255,81.044197 
	C102.594887,80.348312 102.772720,80.100273 102.958130,79.857674 
	C103.742516,78.967514 104.526901,78.077354 105.929840,76.984192 
	C108.019325,74.813690 109.490257,72.846199 110.961189,70.878716 
	C111.591911,70.159660 112.222633,69.440605 113.144188,68.619308 
	C113.435020,68.517067 113.623032,68.521255 113.623032,68.521255 
	C113.623032,68.521255 113.368088,68.320518 113.368088,68.320518 
	C115.335625,66.291206 117.303162,64.261894 119.930885,62.063076 
	C122.711502,59.880516 124.831947,57.867462 126.952393,55.854408 
	C126.989510,55.526691 127.146797,55.273682 128.006104,54.992893 
	C130.042435,53.544144 131.496933,52.197884 132.951447,50.851624 
	C133.419891,50.284687 133.888321,49.717754 134.979904,49.035484 
	C136.474945,48.090004 137.346848,47.259865 138.218735,46.429726 
	C138.218735,46.429726 138.255447,46.231655 138.663986,46.231384 
	C139.696396,45.780766 140.320251,45.330421 140.944107,44.880074 
	C140.944107,44.880070 140.952057,44.945026 141.282654,44.912720 
	C143.393860,43.540184 145.174454,42.199955 146.955048,40.859726 
M171.472977,274.727234 
	C177.743423,274.961700 184.016022,275.386871 190.283005,275.315796 
	C192.192307,275.294159 194.086121,273.905975 196.698975,272.765472 
	C219.559280,266.794464 236.412048,250.297592 238.438416,230.004471 
	C232.924301,230.004471 227.428055,230.200134 221.954788,229.930115 
	C218.739761,229.771484 217.106064,231.057510 216.045029,233.889450 
	C213.788010,239.913513 209.647186,244.341156 204.527344,248.231049 
	C196.027100,254.689331 186.360229,255.179810 176.353500,255.015701 
	C164.727859,254.825027 154.857437,250.518799 146.907135,242.260254 
	C139.055161,234.103882 135.829636,224.006134 135.968246,212.721085 
	C136.050797,206.000916 135.910477,205.996689 142.663818,205.996384 
	C173.329041,205.994995 203.994263,205.995117 234.659485,205.994690 
	C236.609894,205.994659 238.560303,205.994690 240.713394,205.994690 
	C241.891647,191.798279 240.486008,178.403275 234.412125,166.085251 
	C230.536606,158.225571 225.906143,150.375977 220.052780,143.942429 
	C212.162506,135.270035 201.858337,130.220337 189.861618,128.179321 
	C178.489883,126.244652 167.432953,127.231918 156.958740,130.758911 
	C127.307007,140.743576 112.980675,167.801315 112.240791,195.723419 
	C111.948868,206.740036 113.909683,218.007645 116.277077,228.848160 
	C118.521950,239.127609 123.958282,248.138611 131.345367,256.000244 
	C138.816971,263.951782 148.242432,268.241333 158.310410,272.822449 
	C161.630859,276.268311 165.342102,275.305511 169.737289,273.917816 
	C170.162354,273.990845 170.587418,274.063873 171.472977,274.727234 
M338.921722,242.654999 
	C345.171204,252.151443 351.362915,261.687012 357.738037,271.098358 
	C358.604675,272.377869 360.366486,273.815521 361.751465,273.854889 
	C370.537659,274.104675 379.334381,273.981781 389.385681,273.981781 
	C387.193787,271.195374 385.552826,269.263580 384.078888,267.211823 
	C368.295380,245.240738 352.572693,223.225876 336.750824,201.282501 
	C332.557770,195.467163 332.464233,195.191177 337.075745,189.377991 
	C338.495880,187.587769 339.682983,185.614594 341.060181,183.788071 
	C350.685425,171.022461 360.369385,158.301010 369.955383,145.506104 
	C374.101135,139.972595 378.059021,134.298325 382.619720,127.969887 
	C373.453979,127.969887 365.321533,127.900948 357.193146,128.052170 
	C356.107269,128.072372 354.682953,128.947906 354.021637,129.864700 
	C345.003937,142.366272 336.104523,154.953079 327.149139,167.499756 
	C324.415344,171.329865 321.600098,175.101822 318.599670,179.204590 
	C317.253357,177.728973 316.106567,176.726685 315.266205,175.512329 
	C305.029602,160.720032 294.879120,145.867783 284.567566,131.128174 
	C283.598114,129.742401 281.715546,128.171585 280.209137,128.121384 
	C271.597473,127.834480 262.971344,127.982025 253.097687,127.982025 
	C270.510254,151.642868 287.192230,174.310944 303.971069,197.110596 
	C285.917175,222.432556 267.846924,247.777527 249.168579,273.975342 
	C258.505157,273.975342 266.624725,274.113403 274.730957,273.846527 
	C276.170868,273.799133 277.968170,272.362244 278.893524,271.063354 
	C282.779144,265.609253 286.380035,259.953064 290.114990,254.390854 
	C298.315125,242.178879 306.542084,229.984894 314.739807,217.771317 
	C318.012024,212.896164 318.092987,212.867218 321.855011,217.334961 
	C322.363403,217.938736 322.693573,218.689240 323.140015,219.348969 
	C328.260864,226.916321 333.388214,234.479279 338.921722,242.654999 
z" data-index="1" style="opacity: 1;"></path>
<path fill="#4E4E4E" opacity="1.000000" stroke="none" d="
M133.003357,407.201355 
	C134.602951,407.465454 136.602356,407.238861 137.693008,408.127563 
	C138.852646,409.072449 139.736282,411.126160 139.606064,412.595154 
	C139.527924,413.476868 137.296539,414.804962 136.005020,414.837860 
	C128.020538,415.041168 120.021896,415.119019 112.041031,414.850250 
	C108.093643,414.717316 106.657120,416.070099 106.879959,419.962402 
	C107.107834,423.942841 106.989296,427.950165 106.868668,431.941101 
	C106.779602,434.887817 107.915169,436.083496 110.967850,436.022369 
	C118.288750,435.875854 125.614929,435.974365 132.938828,436.007416 
	C135.270874,436.017944 137.841980,435.736572 137.864716,439.297668 
	C137.885986,442.627319 135.655853,442.937958 133.135941,442.940186 
	C125.978615,442.946503 118.814034,443.162720 111.666924,442.899414 
	C107.822083,442.757782 106.670105,444.268036 106.833580,447.829498 
	C107.039490,452.315277 107.071114,456.817749 106.948624,461.306763 
	C106.870201,464.180695 108.113510,465.068542 110.815117,465.039001 
	C118.470802,464.955200 126.128464,465.070038 133.784836,465.023041 
	C136.668900,465.005341 139.833633,465.495880 139.488541,468.786530 
	C139.324707,470.348663 135.950562,472.681152 133.957642,472.757599 
	C123.986946,473.139862 113.990921,472.967072 104.006218,472.822510 
	C100.346527,472.769501 98.162102,470.836823 98.151062,466.917816 
	C98.102303,449.607849 97.979263,432.297791 98.026604,414.988129 
	C98.036415,411.398010 98.845261,407.937592 103.868668,407.455872 
	C104.671555,407.972809 104.913666,408.382111 105.163216,408.386688 
	C114.387917,408.556335 123.613289,408.691101 132.839111,408.758667 
	C132.890060,408.759033 132.948456,407.742798 133.003357,407.201355 
z" data-index="2"></path>
<path fill="#4E4E4E" opacity="1.000000" stroke="none" d="
M200.272125,427.134521 
	C204.383911,427.683716 204.383911,427.683716 205.364471,433.041809 
	C211.039444,427.690704 217.786697,425.460785 225.000366,427.258392 
	C228.556427,428.144501 232.225861,430.705414 234.670441,433.525665 
	C242.222046,442.237946 241.512344,459.829376 233.833588,467.570099 
	C226.591141,474.870880 216.552475,474.853210 205.455475,466.698608 
	C205.455475,474.397217 205.455475,481.306366 205.455475,487.980103 
	C198.714874,489.348724 197.078705,488.281006 197.055725,482.947144 
	C196.983231,466.127228 196.951263,449.305695 197.163254,432.488068 
	C197.185608,430.715118 198.927231,428.963776 200.272125,427.134521 
M230.253891,457.274902 
	C230.506943,452.843811 231.151871,448.390961 230.907776,443.987427 
	C230.639481,439.146729 225.629440,434.282501 221.417969,433.911438 
	C214.004440,433.258301 208.529541,435.743378 207.114914,441.592224 
	C206.039688,446.037750 205.877014,450.943329 206.473541,455.491394 
	C207.171616,460.813873 210.229294,465.078033 216.117508,465.952667 
	C222.821335,466.948456 226.244003,464.856781 230.253891,457.274902 
z" data-index="3" style="opacity: 1;"></path>
<path fill="#4D4D4D" opacity="1.000000" stroke="none" d="
M282.677643,436.922180 
	C288.882263,425.707733 305.427094,423.657776 313.646454,430.871368 
	C318.840027,435.429443 321.102051,441.211975 320.845184,447.985626 
	C320.722626,451.217712 318.378326,451.916534 315.579498,451.906036 
	C307.913757,451.877258 300.244171,452.061188 292.583282,451.871796 
	C288.247223,451.764557 287.409698,453.198029 288.838593,457.205811 
	C291.517883,464.720886 298.925964,468.110413 308.039703,465.491150 
	C310.576263,464.762207 312.974609,463.457703 315.541412,462.968475 
	C316.827759,462.723297 318.350311,463.717407 319.766052,464.150970 
	C319.239716,465.548920 319.118225,467.420441 318.123688,468.270660 
	C309.367126,475.756378 289.846771,475.324646 282.994629,463.238312 
	C279.533081,457.132538 277.818512,450.410889 280.363220,443.315979 
	C281.088806,441.292969 281.743774,439.244659 282.677643,436.922180 
M305.253723,433.985260 
	C295.725922,431.618195 289.031403,436.301544 288.744415,445.690125 
	C296.661621,445.690125 304.571472,445.690125 312.419495,445.690125 
	C313.312134,440.065002 311.464417,436.836090 305.253723,433.985260 
z" data-index="4" style="opacity: 1;"></path>
<path fill="#4D4D4D" opacity="1.000000" stroke="none" d="
M186.371887,429.234497 
	C182.759537,435.093964 179.244064,440.855316 175.060959,446.082306 
	C172.990677,448.669220 173.264099,450.370605 175.018936,452.523193 
	C178.050583,456.241882 181.118423,459.931396 184.120392,463.673767 
	C185.051270,464.834259 186.284210,466.039001 186.535843,467.381470 
	C186.817551,468.884430 186.669800,471.297058 185.738251,471.969879 
	C184.765121,472.672729 182.027100,472.382721 181.120880,471.471893 
	C177.532776,467.865387 174.362625,463.843445 171.031769,459.980469 
	C169.970520,458.749634 168.891449,457.534210 167.395523,455.826569 
	C163.197525,460.810272 159.302475,465.469849 155.357040,470.086334 
	C154.623062,470.945190 153.705490,472.238159 152.839249,472.265320 
	C151.217896,472.316193 149.355560,471.909088 148.041702,471.025757 
	C147.507065,470.666351 147.663284,468.214325 148.324142,467.318756 
	C151.945679,462.411346 155.755386,457.637054 159.638290,452.930756 
	C161.521744,450.647858 162.494064,448.866852 160.009293,446.117065 
	C156.474197,442.204865 153.444077,437.831177 150.266998,433.602997 
	C148.862305,431.733612 147.081512,429.039154 149.835083,427.764954 
	C151.519623,426.985443 155.099991,428.119873 156.618271,429.620026 
	C159.745422,432.709869 162.026688,436.647491 164.733887,440.176514 
	C165.425919,441.078552 166.408920,441.757385 167.639801,442.889801 
	C171.309814,438.283936 174.849640,433.807251 178.428528,429.362000 
	C180.828613,426.380798 183.404572,425.565887 186.371887,429.234497 
z" data-index="5"></path>
<path fill="#4D4D4D" opacity="1.000000" stroke="none" d="
M362.898651,455.395813 
	C366.089569,463.048920 360.463043,470.802429 352.076752,472.498962 
	C345.189423,473.892273 337.734039,474.083221 331.444794,469.615417 
	C329.999634,468.588745 329.382019,466.397156 328.383575,464.741669 
	C330.321869,464.395874 332.304779,463.602600 334.189789,463.790680 
	C339.227112,464.293304 344.202759,465.421021 349.240875,465.906494 
	C352.973816,466.266266 355.665009,463.644501 355.645386,460.457306 
	C355.633911,458.595428 352.771057,456.075623 350.620270,455.057831 
	C347.236786,453.456726 343.425995,452.554565 339.700104,451.922485 
	C331.185120,450.478058 329.263824,444.925049 329.080872,440.227203 
	C328.851074,434.326691 333.497498,428.312500 339.907379,427.331940 
	C346.515076,426.321106 353.545715,425.350739 359.440216,429.911865 
	C360.883209,431.028412 361.338348,433.421631 362.247650,435.227905 
	C360.355469,435.526978 358.416168,436.246033 356.580597,436.040222 
	C352.391449,435.570557 348.277283,434.412323 344.086639,433.981873 
	C340.554993,433.619141 337.253357,435.411316 337.377838,438.973328 
	C337.455353,441.191956 339.923065,444.100006 342.090759,445.283417 
	C345.013763,446.879272 348.645416,447.325775 352.035950,447.880890 
	C356.772156,448.656281 360.321381,450.970703 362.898651,455.395813 
z" data-index="6" style="opacity: 1;"></path>
<path fill="#4D4D4D" opacity="1.000000" stroke="none" d="
M380.930054,441.293213 
	C382.920776,445.970459 387.145233,445.976379 390.880188,447.128937 
	C395.507019,448.556671 401.351013,449.223419 404.249878,452.415741 
	C410.617279,459.427856 407.130432,470.439178 395.510956,472.666931 
	C388.971405,473.920746 381.965393,473.623657 375.619354,470.168549 
	C372.884949,468.679779 371.508667,466.960266 372.869598,463.320770 
	C374.498016,463.437897 376.246399,463.463806 377.964264,463.706085 
	C382.952393,464.409546 387.907349,465.509735 392.916290,465.848053 
	C396.311646,466.077362 398.875244,463.443970 398.658142,460.371033 
	C398.520081,458.416718 396.062408,455.824707 394.032928,454.967438 
	C389.381592,453.002808 384.270966,452.157440 379.505554,450.421753 
	C375.001709,448.781311 373.047119,445.310760 372.941986,440.356750 
	C372.834747,435.302277 374.509033,431.817169 379.059387,429.466003 
	C386.894714,425.417450 394.756683,425.980927 402.398773,429.483459 
	C404.034607,430.233185 404.622467,433.269409 405.693115,435.252319 
	C403.472198,435.437134 401.223602,435.934937 399.036194,435.741272 
	C394.534454,435.342773 390.023834,433.910828 385.597321,434.188110 
	C382.560455,434.378387 380.037567,436.989136 380.930054,441.293213 
z" data-index="7" style="opacity: 1;"></path>
<path fill="#4E4E4E" opacity="1.000000" stroke="none" d="
M270.197998,433.904785 
	C260.333771,437.647247 258.957428,439.609924 258.892761,449.769409 
	C258.854584,455.761566 258.815613,461.755554 258.921997,467.746124 
	C258.974213,470.687531 258.029785,472.688629 254.875549,472.838348 
	C251.504044,472.998383 250.081818,470.984802 250.076065,467.849609 
	C250.054367,456.031403 249.932220,444.209412 250.236038,432.398804 
	C250.282440,430.595184 252.375092,428.844238 253.521317,427.068909 
	C255.079254,428.169861 256.645508,429.259369 258.189331,430.379791 
	C258.581451,430.664368 258.902008,431.047546 258.627869,430.785492 
	C262.893036,429.410126 266.632324,427.771759 270.532959,427.156708 
	C272.121979,426.906128 274.061188,428.876617 275.841064,429.836578 
	C274.089233,431.171539 272.337372,432.506470 270.197998,433.904785 
z" data-index="8" style="opacity: 1;"></path>
<path fill="#606060" opacity="1.000000" stroke="none" d="
M132.540451,407.119690 
	C132.948456,407.742798 132.890060,408.759033 132.839111,408.758667 
	C123.613289,408.691101 114.387917,408.556335 105.163216,408.386688 
	C104.913666,408.382111 104.671555,407.972809 104.238556,407.468689 
	C113.393265,407.136078 122.735397,407.087036 132.540451,407.119690 
z" data-index="9"></path>

<path fill="#929292" opacity="1.000000" stroke="none" d="
M290.811401,13.559290 
	C290.092560,14.256598 289.034607,15.098445 288.195312,14.918801 
	C283.915253,14.002676 279.691742,12.822538 275.236481,11.451590 
	C280.207397,11.856496 285.390289,12.544600 290.811401,13.559290 
z" data-index="11" style="visibility: hidden;"></path>

<path fill="#8C8C8C" opacity="1.000000" stroke="none" d="
M93.651566,92.040833 
	C93.975967,92.657028 93.990845,93.435944 94.002930,94.607430 
	C94.000122,95.000000 93.994232,95.008324 93.994232,95.008324 
	C91.515144,97.932648 89.036049,100.856964 86.220306,103.872337 
	C88.369789,100.043442 90.855911,96.123497 93.651566,92.040833 
z" data-index="13" style="visibility: hidden;"></path>

<path fill="#969696" opacity="1.000000" stroke="none" d="
M224.580765,11.084303 
	C222.477417,11.844555 219.980743,12.541775 217.190704,13.036235 
	C219.327377,12.229407 221.757401,11.625339 224.580765,11.084303 
z" data-index="15" style="visibility: hidden;"></path>

<path fill="#8A8A8A" opacity="1.000000" stroke="none" d="
M369.967896,51.630554 
	C368.156830,50.475761 366.194763,49.021770 364.145813,47.227081 
	C365.978241,48.368042 367.897552,49.849697 369.967896,51.630554 
z" data-index="17"></path>

<path fill="#8A8A8A" opacity="1.000000" stroke="none" d="
M359.980469,43.646610 
	C358.178284,42.815331 356.213623,41.678230 354.146362,40.203613 
	C355.968475,41.024326 357.893219,42.182560 359.980469,43.646610 
z" data-index="19" style="visibility: hidden;"></path>

<path fill="#8C8C8C" opacity="1.000000" stroke="none" d="
M132.613739,50.915344 
	C131.496933,52.197884 130.042435,53.544144 128.224762,54.922722 
	C129.333084,53.629711 130.804550,52.304390 132.613739,50.915344 
z" data-index="21" style="visibility: hidden;"></path>

<path fill="#969696" opacity="1.000000" stroke="none" d="
M213.636459,13.116522 
	C213.111588,13.504642 212.251053,13.848615 211.162170,14.040622 
	C211.722809,13.616562 212.511810,13.344467 213.636459,13.116522 
z" data-index="23" style="visibility: hidden;"></path>

<path fill="#8A8A8A" opacity="1.000000" stroke="none" d="
M363.961945,46.646061 
	C363.186310,46.441090 362.263672,45.945293 361.192261,45.157341 
	C361.967285,45.361866 362.891113,45.858551 363.961945,46.646061 
z" data-index="25" style="visibility: hidden;"></path>

<path fill="#8C8C8C" opacity="1.000000" stroke="none" d="
M140.655960,44.940933 
	C140.320251,45.330421 139.696396,45.780766 138.763489,46.215858 
	C139.092255,45.800999 139.730026,45.401398 140.655960,44.940933 
z" data-index="27" style="visibility: hidden;"></path>

<path fill="#8C8C8C" opacity="1.000000" stroke="none" d="
M167.708069,28.160595 
	C167.728683,28.355293 167.480453,28.539282 167.046509,28.863564 
	C167.059509,28.727167 167.252304,28.442511 167.708069,28.160595 
z" data-index="29" style="visibility: hidden;"></path>

<path fill="#000000" opacity="1.000000" stroke="none" d="
M338.717773,242.349182 
	C333.388214,234.479279 328.260864,226.916321 323.140015,219.348969 
	C322.693573,218.689240 322.363403,217.938736 321.855011,217.334961 
	C318.092987,212.867218 318.012024,212.896164 314.739807,217.771317 
	C306.542084,229.984894 298.315125,242.178879 290.114990,254.390854 
	C286.380035,259.953064 282.779144,265.609253 278.893524,271.063354 
	C277.968170,272.362244 276.170868,273.799133 274.730957,273.846527 
	C266.624725,274.113403 258.505157,273.975342 249.168579,273.975342 
	C267.846924,247.777527 285.917175,222.432556 303.971069,197.110596 
	C287.192230,174.310944 270.510254,151.642868 253.097687,127.982025 
	C262.971344,127.982025 271.597473,127.834480 280.209137,128.121384 
	C281.715546,128.171585 283.598114,129.742401 284.567566,131.128174 
	C294.879120,145.867783 305.029602,160.720032 315.266205,175.512329 
	C316.106567,176.726685 317.253357,177.728973 318.599670,179.204590 
	C321.600098,175.101822 324.415344,171.329865 327.149139,167.499756 
	C336.104523,154.953079 345.003937,142.366272 354.021637,129.864700 
	C354.682953,128.947906 356.107269,128.072372 357.193146,128.052170 
	C365.321533,127.900948 373.453979,127.969887 382.619720,127.969887 
	C378.059021,134.298325 374.101135,139.972595 369.955383,145.506104 
	C360.369385,158.301010 350.685425,171.022461 341.060181,183.788071 
	C339.682983,185.614594 338.495880,187.587769 337.075745,189.377991 
	C332.464233,195.191177 332.557770,195.467163 336.750824,201.282501 
	C352.572693,223.225876 368.295380,245.240738 384.078888,267.211823 
	C385.552826,269.263580 387.193787,271.195374 389.385681,273.981781 
	C379.334381,273.981781 370.537659,274.104675 361.751465,273.854889 
	C360.366486,273.815521 358.604675,272.377869 357.738037,271.098358 
	C351.362915,261.687012 345.171204,252.151443 338.717773,242.349182 
z" data-index="31" style="opacity: 1; visibility: hidden;"></path>
<path fill="#8C8C8C" opacity="1.000000" stroke="none" d="
M171.242737,274.432068 
	C179.038971,273.771912 187.065475,273.406891 195.539505,273.092773 
	C194.086121,273.905975 192.192307,275.294159 190.283005,275.315796 
	C184.016022,275.386871 177.743423,274.961700 171.242737,274.432068 
z" data-index="32"></path>
<path fill="#8C8C8C" opacity="1.000000" stroke="none" d="
M158.162445,272.494720 
	C161.546295,272.486481 165.078125,272.806000 168.856628,273.452332 
	C165.342102,275.305511 161.630859,276.268311 158.162445,272.494720 
z" data-index="33"></path>

<path fill="#8C8C8C" opacity="1.000000" stroke="none" d="
M94.004395,94.996964 
	C94.008659,94.993927 94.030609,95.062866 94.012421,95.035599 
	C93.994232,95.008324 94.000122,95.000000 94.004395,94.996964 
z" data-index="35" style="visibility: hidden;"></path>

<path fill="#000000" opacity="1.000000" stroke="none" d="
M305.647278,434.035095 
	C311.464417,436.836090 313.312134,440.065002 312.419495,445.690125 
	C304.571472,445.690125 296.661621,445.690125 288.744415,445.690125 
	C289.031403,436.301544 295.725922,431.618195 305.647278,434.035095 
z" data-index="37" style="opacity: 1; visibility: hidden;"></path>
<path fill="#838383" opacity="1.000000" stroke="none" d="
M202.806046,156.263367 
	C209.460083,160.375320 212.332504,166.818222 214.870438,173.292526 
	C216.607880,177.724747 217.443329,182.510529 218.841232,187.733032 
	C190.651794,187.733032 163.743195,187.733032 136.834061,187.726746 
	C133.792557,176.831802 141.772339,161.271759 154.784042,152.718323 
	C168.768539,143.525375 189.113327,144.927521 202.806046,156.263367 
z" data-index="38"></path>
</svg>