<svg xmlns="http://www.w3.org/2000/svg" xmlns:xlink="http://www.w3.org/1999/xlink" viewBox="0,0,256,256" width="480px" height="480px" fill-rule="nonzero"><g transform="translate(24.32,24.32) scale(0.81,0.81)"><g fill="#7e57c2" fill-rule="nonzero" stroke="none" stroke-width="1" stroke-linecap="butt" stroke-linejoin="miter" stroke-miterlimit="10" stroke-dasharray="" stroke-dashoffset="0" font-family="none" font-weight="none" font-size="none" text-anchor="none" style="mix-blend-mode: normal"><g transform="translate(-0.0033,-21.32267) scale(5.33333,5.33333)"><path d="M23,4c-6.617,0 -12,7.27 -12,16.205c0,4.834 1.582,9.169 4.078,12.136c-0.048,0.213 -0.078,0.432 -0.078,0.659c0,1.657 1.343,3 3,3c1.657,0 3,-1.343 3,-3c0,-1.657 -1.343,-3 -3,-3c-0.315,0 -0.612,0.062 -0.897,0.152c-1.897,-2.421 -3.103,-5.977 -3.103,-9.947c0,-7.281 4.037,-13.205 9,-13.205c3.837,0 7.111,3.547 8.404,8.518c1.122,0.346 2.237,0.782 3.33,1.308c-1.155,-7.318 -5.975,-12.826 -11.734,-12.826z"></path><path d="M35.507,20.084c-3.947,-2.392 -8.374,-3.442 -12.182,-2.959c-0.55,-0.681 -1.382,-1.125 -2.325,-1.125c-1.657,0 -3,1.343 -3,3c0,1.657 1.343,3 3,3c1.272,0 2.353,-0.795 2.789,-1.912c3.118,-0.379 6.812,0.531 10.163,2.563c6.403,3.881 9.67,10.569 7.282,14.911c-0.827,1.504 -2.286,2.572 -4.218,3.09c-2.286,0.611 -5.007,0.394 -7.727,-0.528c-0.839,0.772 -1.749,1.498 -2.725,2.168c2.552,1.117 5.196,1.704 7.669,1.704c1.24,0 2.438,-0.147 3.559,-0.447c2.741,-0.733 4.841,-2.304 6.071,-4.542c3.153,-5.731 -0.596,-14.22 -8.356,-18.923z"></path><path d="M35,28.992c0,-1.652 -1.343,-2.992 -3,-2.992c-1.657,0 -3,1.34 -3,2.992c0,0.669 0.228,1.281 0.6,1.779c-1.279,2.802 -3.744,5.567 -7.062,7.578c-3.865,2.344 -8.185,3.202 -11.555,2.302c-1.932,-0.518 -3.391,-1.586 -4.218,-3.09c-1.702,-3.094 -0.521,-7.376 2.61,-10.988c-0.323,-1.144 -0.562,-2.34 -0.706,-3.575c-5.07,4.797 -7.109,11.323 -4.532,16.009c1.23,2.238 3.33,3.809 6.071,4.542c1.121,0.3 2.318,0.447 3.559,0.447c3.346,0 7.007,-1.068 10.326,-3.08c3.836,-2.325 6.683,-5.577 8.209,-8.962c1.513,-0.153 2.698,-1.413 2.698,-2.962z"></path></g></g><g fill="#5e5760" fill-rule="nonzero" stroke="none" stroke-width="1" stroke-linecap="butt" stroke-linejoin="miter" stroke-miterlimit="10" stroke-dasharray="" stroke-dashoffset="0" font-family="none" font-weight="none" font-size="none" text-anchor="none" style="mix-blend-mode: normal"><g><path d="M32.20333,236.49333h16.9c5.59333,0 9.98333,1.28 13.17,3.84c3.18,2.56667 4.77,6.10667 4.77,10.62v0c0,2.48 -0.66667,4.63333 -2,6.46c-1.33333,1.83333 -3.28333,3.31333 -5.85,4.44v0c2.90667,0.85333 4.99667,2.28 6.27,4.28c1.28,2 1.92,4.47667 1.92,7.43v0v2.51c0,1.08 0.21333,1.92 0.64,2.52c0.42667,0.6 1.13667,0.95667 2.13,1.07v0l1.22,0.16v5.96h-5.11c-3.22667,0 -5.49333,-0.86667 -6.8,-2.6c-1.31333,-1.74 -1.97,-3.98667 -1.97,-6.74v0v-2.81c0,-2.39333 -0.63667,-4.27333 -1.91,-5.64c-1.27333,-1.36667 -3.07333,-2.08333 -5.4,-2.15v0h-8.09v13l5.28,1.02v5.92h-20.41v-5.92l5.24,-1.02v-35.37l-5.24,-1.02v-5.96zM42.09333,244.11333v14.12h6.84c2.75333,0 4.81667,-0.58667 6.19,-1.76c1.38,-1.17333 2.07,-2.86667 2.07,-5.08v0c0,-2.21333 -0.68333,-3.98 -2.05,-5.3c-1.36667,-1.32 -3.38,-1.98 -6.04,-1.98v0zM92.40333,286.49333v0c-5.28667,0 -9.51,-1.69 -12.67,-5.07c-3.16,-3.38667 -4.74,-7.68667 -4.74,-12.9v0v-1.36c0,-5.44 1.49667,-9.92 4.49,-13.44c2.99333,-3.52 7.00667,-5.26667 12.04,-5.24v0c4.94,0 8.77667,1.48667 11.51,4.46c2.72667,2.98 4.09,7.01 4.09,12.09v0v5.38h-21.87l-0.06,0.21c0.18,2.41333 0.98667,4.4 2.42,5.96c1.43333,1.55333 3.38,2.33 5.84,2.33v0c2.18667,0 4.00333,-0.22 5.45,-0.66c1.44,-0.44 3.02,-1.13333 4.74,-2.08v0l2.67,6.09c-1.51333,1.2 -3.47,2.20667 -5.87,3.02c-2.40667,0.80667 -5.08667,1.21 -8.04,1.21zM91.52333,256.09333v0c-1.83333,0 -3.28,0.7 -4.34,2.1c-1.06,1.4 -1.71333,3.24 -1.96,5.52v0l0.1,0.17h12.12v-0.88c0,-2.1 -0.49,-3.77667 -1.47,-5.03c-0.98667,-1.25333 -2.47,-1.88 -4.45,-1.88zM136.37333,285.78333l-0.74,-4.47c-1.15333,1.69333 -2.51333,2.98 -4.08,3.86c-1.56667,0.88 -3.35667,1.32 -5.37,1.32v0c-4.51333,0 -8.01667,-1.64667 -10.51,-4.94c-2.49333,-3.29333 -3.74,-7.65 -3.74,-13.07v0v-0.71c0,-5.77333 1.25333,-10.43333 3.76,-13.98c2.50667,-3.54 6.02667,-5.31 10.56,-5.31v0c1.82667,0 3.47333,0.4 4.94,1.2c1.46667,0.8 2.75333,1.93333 3.86,3.4v0v-13.14l-5.28,-1.01v-5.96h5.28h9.89v45.87l4.74,1.02v5.92zM121.82333,267.77333v0.71c0,3.20667 0.53333,5.73 1.6,7.57c1.07333,1.84 2.83,2.76 5.27,2.76v0c1.44,0 2.69333,-0.29333 3.76,-0.88c1.06,-0.58667 1.92667,-1.43333 2.6,-2.54v0v-15.54c-0.67333,-1.17333 -1.53667,-2.08 -2.59,-2.72c-1.04667,-0.64667 -2.28,-0.97 -3.7,-0.97v0c-2.42,0 -4.18333,1.07333 -5.29,3.22c-1.1,2.14 -1.65,4.93667 -1.65,8.39zM179.10333,285.78333l-0.65,-4.63c-1.17333,1.71333 -2.62333,3.03333 -4.35,3.96c-1.72667,0.92 -3.69333,1.38 -5.9,1.38v0c-3.86,0 -6.88667,-1.23333 -9.08,-3.7c-2.18667,-2.47333 -3.28,-6.31667 -3.28,-11.53v0v-15.13l-4.03,-1.02v-5.96h4.03h9.88v22.18c0,2.66 0.44667,4.57333 1.34,5.74c0.89333,1.16 2.22,1.74 3.98,1.74v0c1.56,0 2.90667,-0.25333 4.04,-0.76c1.14,-0.50667 2.07333,-1.23667 2.8,-2.19v0v-19.73l-4.34,-1.02v-5.96h4.34h9.88v29.69l4.44,1.02v5.92zM195.04333,285.78333v-5.92l3.42,-0.54l9.95,-12.05l-9.61,-11.58l-3.42,-0.58v-5.96h16.49v5.72l-3.35,0.41l5.55,7.04l5.45,-7.04l-3.42,-0.41v-5.72h16.55v5.96l-3.31,0.58l-9.42,11.58l9.92,12.05l3.46,0.54v5.92h-16.76v-5.68l3.35,-0.41l-5.69,-7.38l-5.79,7.41l2.95,0.38v5.68z"></path></g></g></g></svg>