<svg xmlns="http://www.w3.org/2000/svg" xmlns:xlink="http://www.w3.org/1999/xlink" viewBox="0,0,256,256" width="240px" height="240px" fill-rule="nonzero"><defs><linearGradient x1="13.315" y1="-0.906" x2="38.005" y2="32.623" gradientUnits="userSpaceOnUse" id="color-1"><stop offset="0" stop-color="#41d1ff"></stop><stop offset="1" stop-color="#9231be"></stop></linearGradient><linearGradient x1="25.502" y1="5.236" x2="37.131" y2="85.01" gradientUnits="userSpaceOnUse" id="color-2"><stop offset="0" stop-color="#fed100"></stop><stop offset="1" stop-color="#e36001"></stop></linearGradient></defs><g transform="translate(25.6,25.6) scale(0.8,0.8)"><g fill="none" fill-rule="nonzero" stroke="none" stroke-width="1" stroke-linecap="butt" stroke-linejoin="miter" stroke-miterlimit="10" stroke-dasharray="" stroke-dashoffset="0" font-family="none" font-weight="none" font-size="none" text-anchor="none" style="mix-blend-mode: normal"><g transform="translate(0.61202,-31.46546) scale(5.33333,5.33333)"><path d="M44.86,9.976l-19.837,35.472c-0.41,0.732 -1.462,0.737 -1.878,0.008l-20.23,-35.477c-0.453,-0.794 0.226,-1.756 1.126,-1.595l19.859,3.55c0.127,0.023 0.256,0.022 0.383,-0.001l19.443,-3.544c0.897,-0.164 1.579,0.791 1.134,1.587z" fill="url(#color-1)"></path><path d="M33.574,3.01l-14.555,2.852c-0.239,0.047 -0.416,0.25 -0.431,0.493l-0.895,15.121c-0.021,0.356 0.306,0.633 0.654,0.552l4.052,-0.935c0.379,-0.087 0.722,0.246 0.644,0.628l-1.204,5.895c-0.081,0.397 0.291,0.736 0.679,0.618l2.503,-0.76c0.388,-0.118 0.761,0.222 0.679,0.62l-1.913,9.26c-0.12,0.579 0.651,0.895 0.972,0.398l0.215,-0.332l11.86,-23.669c0.199,-0.396 -0.144,-0.848 -0.579,-0.764l-4.171,0.805c-0.392,0.076 -0.725,-0.289 -0.615,-0.673l2.722,-9.438c0.11,-0.382 -0.224,-0.748 -0.617,-0.671z" fill="url(#color-2)"></path></g></g><g fill="#8a4e9c" fill-rule="nonzero" stroke="none" stroke-width="1" stroke-linecap="butt" stroke-linejoin="miter" stroke-miterlimit="10" stroke-dasharray="" stroke-dashoffset="0" font-family="none" font-weight="none" font-size="none" text-anchor="none" style="mix-blend-mode: normal"><g><path d="M93.1542,268.11167l8.07,-25.09c-1.02667,-0.21333 -2,-0.49 -2.92,-0.83c-0.91333,-0.34667 -1.73333,-0.69 -2.46,-1.03v0v-2.43h16.26v2.43c-0.51333,0.34 -1.18667,0.68333 -2.02,1.03c-0.83333,0.34 -1.69667,0.61667 -2.59,0.83v0l-14.72,40.51l-6.34,0.77l-16.51,-41.28c-0.85333,-0.21333 -1.70667,-0.48 -2.56,-0.8c-0.85333,-0.32 -1.6,-0.67333 -2.24,-1.06v0v-2.43h21.31v2.43c-0.72667,0.34 -1.53667,0.68333 -2.43,1.03c-0.89333,0.34 -1.83333,0.61667 -2.82,0.83v0l8.96,25.21l1.48,6.02h0.12zM131.7442,281.03167v2.5h-17.66v-2.5c0.64,-0.34 1.3,-0.62667 1.98,-0.86c0.68667,-0.23333 1.43333,-0.45667 2.24,-0.67v0v-23.43l-4.22,-0.51v-2.49c0.64,-0.26 1.44,-0.51667 2.4,-0.77c0.96,-0.26 1.97333,-0.48333 3.04,-0.67c1.06667,-0.19333 2.11333,-0.36667 3.14,-0.52c1.02,-0.14667 1.91333,-0.26333 2.68,-0.35v0h2.18v28.74c0.85333,0.21333 1.62,0.43667 2.3,0.67c0.68667,0.23333 1.32667,0.52 1.92,0.86zM117.2242,241.03167v0c0,-1.49333 0.51,-2.66667 1.53,-3.52c1.02667,-0.85333 2.35,-1.28 3.97,-1.28v0c1.62,0 2.94333,0.42667 3.97,1.28c1.02,0.85333 1.53,2.02667 1.53,3.52v0c0,1.45333 -0.51,2.60667 -1.53,3.46c-1.02667,0.85333 -2.35,1.28 -3.97,1.28v0c-1.62,0 -2.94333,-0.42667 -3.97,-1.28c-1.02,-0.85333 -1.53,-2.00667 -1.53,-3.46zM133.8642,255.56167v-2.49c1.62,-1.02667 3.32667,-1.75333 5.12,-2.18v0v-5.18c0.25333,-0.26 0.69,-0.50667 1.31,-0.74c0.62,-0.23333 1.28,-0.44667 1.98,-0.64c0.70667,-0.19333 1.4,-0.37333 2.08,-0.54c0.68667,-0.17333 1.24333,-0.30333 1.67,-0.39v0h2.17v8.13h8.45v4.03h-8.45v16.58c0,2.64667 0.33,4.48 0.99,5.5c0.66667,1.02667 1.76667,1.54 3.3,1.54v0c0.76667,0 1.63,-0.05333 2.59,-0.16c0.96,-0.10667 1.84667,-0.31 2.66,-0.61v0l0.45,2.11c-0.38667,0.38667 -0.95333,0.79333 -1.7,1.22c-0.74667,0.42667 -1.6,0.83 -2.56,1.21c-0.96,0.38667 -2.00667,0.70667 -3.14,0.96c-1.12667,0.26 -2.31,0.39 -3.55,0.39v0c-2.77333,0 -4.84333,-0.72667 -6.21,-2.18c-1.36,-1.44667 -2.04,-3.79333 -2.04,-7.04v0v-19.52zM188.7742,276.87167l1.21,1.28c-0.34,0.72667 -0.88333,1.46333 -1.63,2.21c-0.74667,0.74667 -1.66333,1.41 -2.75,1.99c-1.08667,0.57333 -2.34667,1.04 -3.78,1.4c-1.42667,0.36667 -2.97333,0.55 -4.64,0.55v0c-2.64,0 -4.98667,-0.39667 -7.04,-1.19c-2.04667,-0.78667 -3.75333,-1.91667 -5.12,-3.39c-1.36,-1.47333 -2.39333,-3.23333 -3.1,-5.28c-0.70667,-2.04667 -1.06,-4.35 -1.06,-6.91v0c0,-5.46 1.43,-9.62 4.29,-12.48c2.86,-2.86 6.83,-4.29 11.91,-4.29v0c2.17333,0 4.21,0.3 6.11,0.9c1.9,0.59333 3.47667,1.57333 4.73,2.94c1.26,1.36667 2.13667,3.16 2.63,5.38c0.48667,2.22 0.45333,4.93 -0.1,8.13v0h-19.65c0.04667,3.36667 0.91333,6.05333 2.6,8.06c1.68,2.00667 4.16333,3.01 7.45,3.01v0c1.40667,0 2.87,-0.21333 4.39,-0.64c1.51333,-0.42667 2.69667,-0.98333 3.55,-1.67zM176.8042,254.41167v0c-0.85333,0 -1.61,0.15 -2.27,0.45c-0.66,0.3 -1.23667,0.84333 -1.73,1.63c-0.49333,0.78667 -0.88667,1.85333 -1.18,3.2c-0.3,1.34667 -0.51333,3.04333 -0.64,5.09v0h10.3c0.3,-3.32667 0.10667,-5.88667 -0.58,-7.68c-0.68,-1.79333 -1.98,-2.69 -3.9,-2.69z"></path></g></g></g></svg>